<?xml version="1.0" encoding="UTF-8"?>
<svg id="art" width="520" height="560" viewBox="-351.8326721191406 54.6038818359375 631.1243896484375 403.09515380859375" xmlns="http://www.w3.org/2000/svg" style="--bg: #0b1220; cursor: default;">

  

  <g id="cubes"><g><polygon points="146.02442617949447,130.55863823484412 169.34122780236973,138.38977876987994 169.34122780236973,160.38977876987994 146.02442617949447,152.55863823484412" fill="#065f46" stroke="none"/><polygon points="189.59622120412357,124.43502179260123 169.34122780236973,138.38977876987994 169.34122780236973,160.38977876987994 189.59622120412357,146.43502179260122" fill="#a7f3d0" stroke="none"/><polygon points="166.2794195812483,116.6038812575654 189.59622120412357,124.43502179260123 169.34122780236973,138.38977876987994 146.02442617949447,130.55863823484412" fill="#10b981" stroke="none"/></g><g><polygon points="146.02442617949447,108.55863823484412 169.34122780236973,116.38977876987994 169.34122780236973,138.38977876987994 146.02442617949447,130.55863823484412" fill="#065f46" stroke="none"/><polygon points="189.59622120412357,102.43502179260123 169.34122780236973,116.38977876987994 169.34122780236973,138.38977876987994 189.59622120412357,124.43502179260123" fill="#a7f3d0" stroke="none"/><polygon points="166.2794195812483,94.6038812575654 189.59622120412357,102.43502179260123 169.34122780236973,116.38977876987994 146.02442617949447,108.55863823484412" fill="#10b981" stroke="none"/></g><g><polygon points="102.4526311548654,136.68225467708697 125.76943277774066,144.51339521212282 125.76943277774066,166.51339521212282 102.4526311548654,158.68225467708697" fill="#065f46" stroke="none"/><polygon points="146.0244261794945,130.5586382348441 125.76943277774066,144.51339521212282 125.76943277774066,166.51339521212282 146.0244261794945,152.5586382348441" fill="#a7f3d0" stroke="none"/><polygon points="122.70762455661922,122.72749769980827 146.0244261794945,130.5586382348441 125.76943277774066,144.51339521212282 102.4526311548654,136.68225467708697" fill="#10b981" stroke="none"/></g><g><polygon points="102.4526311548654,114.68225467708697 125.76943277774066,122.51339521212282 125.76943277774066,144.51339521212282 102.4526311548654,136.68225467708697" fill="#065f46" stroke="none"/><polygon points="146.0244261794945,108.5586382348441 125.76943277774066,122.51339521212282 125.76943277774066,144.51339521212282 146.0244261794945,130.5586382348441" fill="#a7f3d0" stroke="none"/><polygon points="122.70762455661922,100.72749769980827 146.0244261794945,108.5586382348441 125.76943277774066,122.51339521212282 102.4526311548654,114.68225467708697" fill="#10b981" stroke="none"/></g><g><polygon points="169.34122780236973,138.38977876987994 192.658029425245,146.22091930491578 192.658029425245,168.22091930491578 169.34122780236973,160.38977876987994" fill="#065f46" stroke="none"/><polygon points="212.91302282699883,132.26616232763706 192.658029425245,146.22091930491578 192.658029425245,168.22091930491578 212.91302282699883,154.26616232763706" fill="#a7f3d0" stroke="none"/><polygon points="189.59622120412357,124.43502179260122 212.91302282699883,132.26616232763706 192.658029425245,146.22091930491578 169.34122780236973,138.38977876987994" fill="#10b981" stroke="none"/></g><g><polygon points="169.34122780236973,116.38977876987994 192.658029425245,124.22091930491575 192.658029425245,146.22091930491575 169.34122780236973,138.38977876987994" fill="#065f46" stroke="none"/><polygon points="212.91302282699883,110.26616232763705 192.658029425245,124.22091930491575 192.658029425245,146.22091930491575 212.91302282699883,132.26616232763706" fill="#a7f3d0" stroke="none"/><polygon points="189.59622120412357,102.43502179260122 212.91302282699883,110.26616232763705 192.658029425245,124.22091930491575 169.34122780236973,116.38977876987994" fill="#10b981" stroke="none"/></g><g><polygon points="125.76943277774063,144.51339521212284 149.0862344006159,152.3445357471587 149.0862344006159,174.3445357471587 125.76943277774063,166.51339521212284" fill="#065f46" stroke="none"/><polygon points="169.34122780236973,138.38977876987997 149.0862344006159,152.3445357471587 149.0862344006159,174.3445357471587 169.34122780236973,160.38977876987997" fill="#a7f3d0" stroke="none"/><polygon points="146.02442617949447,130.55863823484412 169.34122780236973,138.38977876987997 149.0862344006159,152.3445357471587 125.76943277774063,144.51339521212284" fill="#10b981" stroke="none"/></g><g><polygon points="125.76943277774063,122.51339521212284 149.0862344006159,130.34453574715866 149.0862344006159,152.34453574715866 125.76943277774063,144.51339521212284" fill="#065f46" stroke="none"/><polygon points="169.34122780236973,116.38977876987995 149.0862344006159,130.34453574715866 149.0862344006159,152.34453574715866 169.34122780236973,138.38977876987997" fill="#a7f3d0" stroke="none"/><polygon points="146.02442617949447,108.55863823484412 169.34122780236973,116.38977876987995 149.0862344006159,130.34453574715866 125.76943277774063,122.51339521212284" fill="#10b981" stroke="none"/></g><g><polygon points="82.19763775311156,150.6370116543657 105.51443937598683,158.46815218940154 105.51443937598683,180.46815218940154 82.19763775311156,172.6370116543657" fill="#065f46" stroke="none"/><polygon points="125.76943277774066,144.51339521212282 105.51443937598683,158.46815218940154 105.51443937598683,180.46815218940154 125.76943277774066,166.51339521212282" fill="#a7f3d0" stroke="none"/><polygon points="102.4526311548654,136.68225467708697 125.76943277774066,144.51339521212282 105.51443937598683,158.46815218940154 82.19763775311156,150.6370116543657" fill="#10b981" stroke="none"/></g><g><polygon points="82.19763775311156,128.6370116543657 105.51443937598683,136.4681521894015 105.51443937598683,158.4681521894015 82.19763775311156,150.6370116543657" fill="#065f46" stroke="none"/><polygon points="125.76943277774066,122.5133952121228 105.51443937598683,136.4681521894015 105.51443937598683,158.4681521894015 125.76943277774066,144.51339521212282" fill="#a7f3d0" stroke="none"/><polygon points="102.4526311548654,114.68225467708697 125.76943277774066,122.5133952121228 105.51443937598683,136.4681521894015 82.19763775311156,128.6370116543657" fill="#10b981" stroke="none"/></g><g><polygon points="192.658029425245,146.22091930491578 215.97483104812025,154.05205983995162 215.97483104812025,176.05205983995162 192.658029425245,168.22091930491578" fill="#065f46" stroke="none"/><polygon points="236.2298244498741,140.0973028626729 215.97483104812025,154.05205983995162 215.97483104812025,176.05205983995162 236.2298244498741,162.0973028626729" fill="#a7f3d0" stroke="none"/><polygon points="212.91302282699883,132.26616232763706 236.2298244498741,140.0973028626729 215.97483104812025,154.05205983995162 192.658029425245,146.22091930491578" fill="#10b981" stroke="none"/></g><g><polygon points="192.658029425245,124.22091930491578 215.97483104812025,132.0520598399516 215.97483104812025,154.0520598399516 192.658029425245,146.22091930491578" fill="#065f46" stroke="none"/><polygon points="236.2298244498741,118.09730286267289 215.97483104812025,132.0520598399516 215.97483104812025,154.0520598399516 236.2298244498741,140.0973028626729" fill="#a7f3d0" stroke="none"/><polygon points="212.91302282699883,110.26616232763706 236.2298244498741,118.09730286267289 215.97483104812025,132.0520598399516 192.658029425245,124.22091930491578" fill="#10b981" stroke="none"/></g><g><polygon points="149.08623440061592,152.34453574715866 172.40303602349118,160.1756762821945 172.40303602349118,182.1756762821945 149.08623440061592,174.34453574715866" fill="#065f46" stroke="none"/><polygon points="192.65802942524502,146.22091930491578 172.40303602349118,160.1756762821945 172.40303602349118,182.1756762821945 192.65802942524502,168.22091930491578" fill="#a7f3d0" stroke="none"/><polygon points="169.34122780236976,138.38977876987994 192.65802942524502,146.22091930491578 172.40303602349118,160.1756762821945 149.08623440061592,152.34453574715866" fill="#10b981" stroke="none"/></g><g><polygon points="149.08623440061592,130.34453574715866 172.40303602349118,138.17567628219447 172.40303602349118,160.17567628219447 149.08623440061592,152.34453574715866" fill="#065f46" stroke="none"/><polygon points="192.65802942524502,124.22091930491577 172.40303602349118,138.17567628219447 172.40303602349118,160.17567628219447 192.65802942524502,146.22091930491575" fill="#a7f3d0" stroke="none"/><polygon points="169.34122780236976,116.38977876987994 192.65802942524502,124.22091930491577 172.40303602349118,138.17567628219447 149.08623440061592,130.34453574715866" fill="#10b981" stroke="none"/></g><g><polygon points="105.51443937598683,158.46815218940154 128.83124099886209,166.29929272443738 128.83124099886209,188.29929272443738 105.51443937598683,180.46815218940154" fill="#065f46" stroke="none"/><polygon points="149.08623440061592,152.34453574715866 128.83124099886209,166.29929272443738 128.83124099886209,188.29929272443738 149.08623440061592,174.34453574715866" fill="#a7f3d0" stroke="none"/><polygon points="125.76943277774066,144.51339521212282 149.08623440061592,152.34453574715866 128.83124099886209,166.29929272443738 105.51443937598683,158.46815218940154" fill="#10b981" stroke="none"/></g><g><polygon points="105.51443937598683,136.46815218940154 128.83124099886209,144.29929272443738 128.83124099886209,166.29929272443738 105.51443937598683,158.46815218940154" fill="#065f46" stroke="none"/><polygon points="149.08623440061592,130.34453574715866 128.83124099886209,144.29929272443738 128.83124099886209,166.29929272443738 149.08623440061592,152.34453574715866" fill="#a7f3d0" stroke="none"/><polygon points="125.76943277774066,122.51339521212282 149.08623440061592,130.34453574715866 128.83124099886209,144.29929272443738 105.51443937598683,136.46815218940154" fill="#10b981" stroke="none"/></g><g><polygon points="61.942644351357735,164.5917686316444 85.25944597423299,172.42290916668026 85.25944597423299,194.42290916668026 61.942644351357735,186.5917686316444" fill="#065f46" stroke="none"/><polygon points="105.51443937598683,158.46815218940154 85.25944597423299,172.42290916668026 85.25944597423299,194.42290916668026 105.51443937598683,180.46815218940154" fill="#a7f3d0" stroke="none"/><polygon points="82.19763775311156,150.6370116543657 105.51443937598683,158.46815218940154 85.25944597423299,172.42290916668026 61.942644351357735,164.5917686316444" fill="#10b981" stroke="none"/></g><g><polygon points="61.942644351357735,142.5917686316444 85.25944597423299,150.42290916668026 85.25944597423299,172.42290916668026 61.942644351357735,164.5917686316444" fill="#065f46" stroke="none"/><polygon points="105.51443937598683,136.46815218940154 85.25944597423299,150.42290916668026 85.25944597423299,172.42290916668026 105.51443937598683,158.46815218940154" fill="#a7f3d0" stroke="none"/><polygon points="82.19763775311156,128.6370116543657 105.51443937598683,136.46815218940154 85.25944597423299,150.42290916668026 61.942644351357735,142.5917686316444" fill="#10b981" stroke="none"/></g><g><polygon points="172.40303602349115,160.17567628219447 195.71983764636641,168.00681681723032 195.71983764636641,190.00681681723032 172.40303602349115,182.17567628219447" fill="#065f46" stroke="none"/><polygon points="215.97483104812025,154.0520598399516 195.71983764636641,168.00681681723032 195.71983764636641,190.00681681723032 215.97483104812025,176.0520598399516" fill="#a7f3d0" stroke="none"/><polygon points="192.658029425245,146.22091930491575 215.97483104812025,154.0520598399516 195.71983764636641,168.00681681723032 172.40303602349115,160.17567628219447" fill="#10b981" stroke="none"/></g><g><polygon points="172.40303602349115,138.17567628219447 195.71983764636641,146.00681681723032 195.71983764636641,168.00681681723032 172.40303602349115,160.17567628219447" fill="#065f46" stroke="none"/><polygon points="215.97483104812025,132.0520598399516 195.71983764636641,146.00681681723032 195.71983764636641,168.00681681723032 215.97483104812025,154.0520598399516" fill="#a7f3d0" stroke="none"/><polygon points="192.658029425245,124.22091930491575 215.97483104812025,132.0520598399516 195.71983764636641,146.00681681723032 172.40303602349115,138.17567628219447" fill="#10b981" stroke="none"/></g><g><polygon points="85.25944597423299,172.42290916668026 108.57624759710825,180.2540497017161 108.57624759710825,202.2540497017161 85.25944597423299,194.42290916668026" fill="#065f46" stroke="none"/><polygon points="128.83124099886209,166.29929272443738 108.57624759710825,180.2540497017161 108.57624759710825,202.2540497017161 128.83124099886209,188.29929272443738" fill="#a7f3d0" stroke="none"/><polygon points="105.51443937598683,158.46815218940154 128.83124099886209,166.29929272443738 108.57624759710825,180.2540497017161 85.25944597423299,172.42290916668026" fill="#10b981" stroke="none"/></g><g><polygon points="85.25944597423299,150.42290916668026 108.57624759710825,158.2540497017161 108.57624759710825,180.2540497017161 85.25944597423299,172.42290916668026" fill="#065f46" stroke="none"/><polygon points="128.83124099886209,144.29929272443738 108.57624759710825,158.2540497017161 108.57624759710825,180.2540497017161 128.83124099886209,166.29929272443738" fill="#a7f3d0" stroke="none"/><polygon points="105.51443937598683,136.46815218940154 128.83124099886209,144.29929272443738 108.57624759710825,158.2540497017161 85.25944597423299,150.42290916668026" fill="#10b981" stroke="none"/></g><g><polygon points="41.6876509496039,178.54652560892313 65.00445257247915,186.37766614395898 65.00445257247915,208.37766614395898 41.6876509496039,200.54652560892313" fill="#065f46" stroke="none"/><polygon points="85.25944597423299,172.42290916668026 65.00445257247915,186.37766614395898 65.00445257247915,208.37766614395898 85.25944597423299,194.42290916668026" fill="#a7f3d0" stroke="none"/><polygon points="61.94264435135773,164.5917686316444 85.25944597423299,172.42290916668026 65.00445257247915,186.37766614395898 41.6876509496039,178.54652560892313" fill="#10b981" stroke="none"/></g><g><polygon points="41.6876509496039,156.54652560892313 65.00445257247915,164.37766614395898 65.00445257247915,186.37766614395898 41.6876509496039,178.54652560892313" fill="#065f46" stroke="none"/><polygon points="85.25944597423299,150.42290916668026 65.00445257247915,164.37766614395898 65.00445257247915,186.37766614395898 85.25944597423299,172.42290916668026" fill="#a7f3d0" stroke="none"/><polygon points="61.94264435135773,142.5917686316444 85.25944597423299,150.42290916668026 65.00445257247915,164.37766614395898 41.6876509496039,156.54652560892313" fill="#10b981" stroke="none"/></g><g><polygon points="195.71983764636644,168.00681681723032 219.0366392692417,175.83795735226616 219.0366392692417,197.83795735226616 195.71983764636644,190.00681681723032" fill="#065f46" stroke="none"/><polygon points="239.29163267099554,161.88320037498744 219.0366392692417,175.83795735226616 219.0366392692417,197.83795735226616 239.29163267099554,183.88320037498744" fill="#a7f3d0" stroke="none"/><polygon points="215.97483104812028,154.0520598399516 239.29163267099554,161.88320037498744 219.0366392692417,175.83795735226616 195.71983764636644,168.00681681723032" fill="#10b981" stroke="none"/></g><g><polygon points="195.71983764636644,146.00681681723032 219.0366392692417,153.83795735226616 219.0366392692417,175.83795735226616 195.71983764636644,168.00681681723032" fill="#065f46" stroke="none"/><polygon points="239.29163267099554,139.88320037498744 219.0366392692417,153.83795735226616 219.0366392692417,175.83795735226616 239.29163267099554,161.88320037498744" fill="#a7f3d0" stroke="none"/><polygon points="215.97483104812028,132.0520598399516 239.29163267099554,139.88320037498744 219.0366392692417,153.83795735226616 195.71983764636644,146.00681681723032" fill="#10b981" stroke="none"/></g><g><polygon points="65.00445257247915,186.37766614395898 88.32125419535441,194.20880667899482 88.32125419535441,216.20880667899482 65.00445257247915,208.37766614395898" fill="#065f46" stroke="none"/><polygon points="108.57624759710825,180.2540497017161 88.32125419535441,194.20880667899482 88.32125419535441,216.20880667899482 108.57624759710825,202.2540497017161" fill="#a7f3d0" stroke="none"/><polygon points="85.25944597423299,172.42290916668026 108.57624759710825,180.2540497017161 88.32125419535441,194.20880667899482 65.00445257247915,186.37766614395898" fill="#10b981" stroke="none"/></g><g><polygon points="65.00445257247915,164.37766614395898 88.32125419535441,172.20880667899482 88.32125419535441,194.20880667899482 65.00445257247915,186.37766614395898" fill="#065f46" stroke="none"/><polygon points="108.57624759710825,158.2540497017161 88.32125419535441,172.20880667899482 88.32125419535441,194.20880667899482 108.57624759710825,180.2540497017161" fill="#a7f3d0" stroke="none"/><polygon points="85.25944597423299,150.42290916668026 108.57624759710825,158.2540497017161 88.32125419535441,172.20880667899482 65.00445257247915,164.37766614395898" fill="#10b981" stroke="none"/></g><g><polygon points="21.432657547850077,192.50128258620182 44.74945917072535,200.33242312123767 44.74945917072535,222.33242312123767 21.432657547850077,214.50128258620182" fill="#065f46" stroke="none"/><polygon points="65.00445257247918,186.37766614395895 44.74945917072535,200.33242312123767 44.74945917072535,222.33242312123767 65.00445257247918,208.37766614395895" fill="#a7f3d0" stroke="none"/><polygon points="41.687650949603906,178.5465256089231 65.00445257247918,186.37766614395895 44.74945917072535,200.33242312123767 21.432657547850077,192.50128258620182" fill="#10b981" stroke="none"/></g><g><polygon points="21.432657547850077,170.50128258620182 44.74945917072535,178.33242312123767 44.74945917072535,200.33242312123767 21.432657547850077,192.50128258620182" fill="#065f46" stroke="none"/><polygon points="65.00445257247918,164.37766614395895 44.74945917072535,178.33242312123767 44.74945917072535,200.33242312123767 65.00445257247918,186.37766614395895" fill="#a7f3d0" stroke="none"/><polygon points="41.687650949603906,156.5465256089231 65.00445257247918,164.37766614395895 44.74945917072535,178.33242312123767 21.432657547850077,170.50128258620182" fill="#10b981" stroke="none"/></g><g><polygon points="175.46484424461264,181.96157379450904 198.7816458674879,189.79271432954488 198.7816458674879,211.79271432954488 175.46484424461264,203.96157379450904" fill="#065f46" stroke="none"/><polygon points="219.03663926924173,175.83795735226616 198.7816458674879,189.79271432954488 198.7816458674879,211.79271432954488 219.03663926924173,197.83795735226616" fill="#a7f3d0" stroke="none"/><polygon points="195.71983764636647,168.00681681723032 219.03663926924173,175.83795735226616 198.7816458674879,189.79271432954488 175.46484424461264,181.96157379450904" fill="#10b981" stroke="none"/></g><g><polygon points="175.46484424461264,159.96157379450904 198.7816458674879,167.79271432954488 198.7816458674879,189.79271432954488 175.46484424461264,181.96157379450904" fill="#065f46" stroke="none"/><polygon points="219.03663926924173,153.83795735226616 198.7816458674879,167.79271432954488 198.7816458674879,189.79271432954488 219.03663926924173,175.83795735226616" fill="#a7f3d0" stroke="none"/><polygon points="195.71983764636647,146.00681681723032 219.03663926924173,153.83795735226616 198.7816458674879,167.79271432954488 175.46484424461264,159.96157379450904" fill="#10b981" stroke="none"/></g><g><polygon points="44.74945917072534,200.33242312123767 68.0662607936006,208.1635636562735 68.0662607936006,230.1635636562735 44.74945917072534,222.33242312123767" fill="#065f46" stroke="none"/><polygon points="88.32125419535444,194.2088066789948 68.0662607936006,208.1635636562735 68.0662607936006,230.1635636562735 88.32125419535444,216.2088066789948" fill="#a7f3d0" stroke="none"/><polygon points="65.00445257247917,186.37766614395895 88.32125419535444,194.2088066789948 68.0662607936006,208.1635636562735 44.74945917072534,200.33242312123767" fill="#10b981" stroke="none"/></g><g><polygon points="44.74945917072534,178.33242312123767 68.0662607936006,186.1635636562735 68.0662607936006,208.1635636562735 44.74945917072534,200.33242312123767" fill="#065f46" stroke="none"/><polygon points="88.32125419535444,172.2088066789948 68.0662607936006,186.1635636562735 68.0662607936006,208.1635636562735 88.32125419535444,194.2088066789948" fill="#a7f3d0" stroke="none"/><polygon points="65.00445257247917,164.37766614395895 88.32125419535444,172.2088066789948 68.0662607936006,186.1635636562735 44.74945917072534,178.33242312123767" fill="#10b981" stroke="none"/></g><g><polygon points="1.1776641460962551,206.45603956348054 24.494465768971523,214.2871800985164 24.494465768971523,236.2871800985164 1.1776641460962551,228.45603956348054" fill="#065f46" stroke="none"/><polygon points="44.74945917072535,200.33242312123767 24.494465768971523,214.2871800985164 24.494465768971523,236.2871800985164 44.74945917072535,222.33242312123767" fill="#a7f3d0" stroke="none"/><polygon points="21.432657547850084,192.50128258620182 44.74945917072535,200.33242312123767 24.494465768971523,214.2871800985164 1.1776641460962551,206.45603956348054" fill="#10b981" stroke="none"/></g><g><polygon points="1.1776641460962551,184.45603956348054 24.494465768971523,192.2871800985164 24.494465768971523,214.2871800985164 1.1776641460962551,206.45603956348054" fill="#065f46" stroke="none"/><polygon points="44.74945917072535,178.33242312123767 24.494465768971523,192.2871800985164 24.494465768971523,214.2871800985164 44.74945917072535,200.33242312123767" fill="#a7f3d0" stroke="none"/><polygon points="21.432657547850084,170.50128258620182 44.74945917072535,178.33242312123767 24.494465768971523,192.2871800985164 1.1776641460962551,184.45603956348054" fill="#10b981" stroke="none"/></g><g><polygon points="24.494465768971516,214.2871800985164 47.811267391846776,222.11832063355223 47.811267391846776,244.11832063355223 24.494465768971516,236.2871800985164" fill="#065f46" stroke="none"/><polygon points="68.0662607936006,208.1635636562735 47.811267391846776,222.11832063355223 47.811267391846776,244.11832063355223 68.0662607936006,230.1635636562735" fill="#a7f3d0" stroke="none"/><polygon points="44.749459170725345,200.33242312123767 68.0662607936006,208.1635636562735 47.811267391846776,222.11832063355223 24.494465768971516,214.2871800985164" fill="#10b981" stroke="none"/></g><g><polygon points="24.494465768971516,192.2871800985164 47.811267391846776,200.11832063355223 47.811267391846776,222.11832063355223 24.494465768971516,214.2871800985164" fill="#065f46" stroke="none"/><polygon points="68.0662607936006,186.1635636562735 47.811267391846776,200.11832063355223 47.811267391846776,222.11832063355223 68.0662607936006,208.1635636562735" fill="#a7f3d0" stroke="none"/><polygon points="44.749459170725345,178.33242312123767 68.0662607936006,186.1635636562735 47.811267391846776,200.11832063355223 24.494465768971516,192.2871800985164" fill="#10b981" stroke="none"/></g><g><polygon points="-19.07732925565758,220.41079654075926 4.239472367217687,228.2419370757951 4.239472367217687,250.2419370757951 -19.07732925565758,242.41079654075926" fill="#065f46" stroke="none"/><polygon points="24.494465768971516,214.2871800985164 4.239472367217687,228.2419370757951 4.239472367217687,250.2419370757951 24.494465768971516,236.2871800985164" fill="#a7f3d0" stroke="none"/><polygon points="1.177664146096248,206.45603956348054 24.494465768971516,214.2871800985164 4.239472367217687,228.2419370757951 -19.07732925565758,220.41079654075926" fill="#10b981" stroke="none"/></g><g><polygon points="-19.07732925565758,198.41079654075926 4.239472367217687,206.2419370757951 4.239472367217687,228.2419370757951 -19.07732925565758,220.41079654075926" fill="#065f46" stroke="none"/><polygon points="24.494465768971516,192.2871800985164 4.239472367217687,206.2419370757951 4.239472367217687,228.2419370757951 24.494465768971516,214.2871800985164" fill="#a7f3d0" stroke="none"/><polygon points="1.177664146096248,184.45603956348054 24.494465768971516,192.2871800985164 4.239472367217687,206.2419370757951 -19.07732925565758,198.41079654075926" fill="#10b981" stroke="none"/></g><g><polygon points="4.2394723672176795,228.2419370757951 27.556273990092947,236.07307761083095 27.556273990092947,258.073077610831 4.2394723672176795,250.2419370757951" fill="#065f46" stroke="none"/><polygon points="47.811267391846776,222.11832063355223 27.556273990092947,236.07307761083095 27.556273990092947,258.073077610831 47.811267391846776,244.11832063355223" fill="#a7f3d0" stroke="none"/><polygon points="24.49446576897151,214.2871800985164 47.811267391846776,222.11832063355223 27.556273990092947,236.07307761083095 4.2394723672176795,228.2419370757951" fill="#10b981" stroke="none"/></g><g><polygon points="4.2394723672176795,206.2419370757951 27.556273990092947,214.07307761083095 27.556273990092947,236.07307761083095 4.2394723672176795,228.2419370757951" fill="#065f46" stroke="none"/><polygon points="47.811267391846776,200.11832063355223 27.556273990092947,214.07307761083095 27.556273990092947,236.07307761083095 47.811267391846776,222.11832063355223" fill="#a7f3d0" stroke="none"/><polygon points="24.49446576897151,192.2871800985164 47.811267391846776,200.11832063355223 27.556273990092947,214.07307761083095 4.2394723672176795,206.2419370757951" fill="#10b981" stroke="none"/></g><g><polygon points="-39.33232265741142,234.36555351803798 -16.01552103453615,242.19669405307383 -16.01552103453615,264.1966940530738 -39.33232265741142,256.365553518038" fill="#065f46" stroke="none"/><polygon points="4.2394723672176795,228.2419370757951 -16.01552103453615,242.19669405307383 -16.01552103453615,264.1966940530738 4.2394723672176795,250.2419370757951" fill="#a7f3d0" stroke="none"/><polygon points="-19.077329255657588,220.41079654075926 4.2394723672176795,228.2419370757951 -16.01552103453615,242.19669405307383 -39.33232265741142,234.36555351803798" fill="#10b981" stroke="none"/></g><g><polygon points="-39.33232265741142,212.36555351803798 -16.01552103453615,220.19669405307383 -16.01552103453615,242.19669405307383 -39.33232265741142,234.36555351803798" fill="#065f46" stroke="none"/><polygon points="4.2394723672176795,206.2419370757951 -16.01552103453615,220.19669405307383 -16.01552103453615,242.19669405307383 4.2394723672176795,228.2419370757951" fill="#a7f3d0" stroke="none"/><polygon points="-19.077329255657588,198.41079654075926 4.2394723672176795,206.2419370757951 -16.01552103453615,220.19669405307383 -39.33232265741142,212.36555351803798" fill="#10b981" stroke="none"/></g><g><polygon points="-16.015521034536157,242.19669405307383 7.301280588339111,250.02783458810967 7.301280588339111,272.02783458810967 -16.015521034536157,264.1966940530738" fill="#065f46" stroke="none"/><polygon points="27.55627399009294,236.07307761083095 7.301280588339111,250.02783458810967 7.301280588339111,272.02783458810967 27.55627399009294,258.073077610831" fill="#a7f3d0" stroke="none"/><polygon points="4.239472367217672,228.2419370757951 27.55627399009294,236.07307761083095 7.301280588339111,250.02783458810967 -16.015521034536157,242.19669405307383" fill="#10b981" stroke="none"/></g><g><polygon points="-16.015521034536157,220.19669405307383 7.301280588339111,228.02783458810967 7.301280588339111,250.02783458810967 -16.015521034536157,242.19669405307383" fill="#065f46" stroke="none"/><polygon points="27.55627399009294,214.07307761083095 7.301280588339111,228.02783458810967 7.301280588339111,250.02783458810967 27.55627399009294,236.07307761083095" fill="#a7f3d0" stroke="none"/><polygon points="4.239472367217672,206.2419370757951 27.55627399009294,214.07307761083095 7.301280588339111,228.02783458810967 -16.015521034536157,220.19669405307383" fill="#10b981" stroke="none"/></g><g><polygon points="-59.58731605916525,248.3203104953167 -36.270514436289986,256.1514510303525 -36.270514436289986,278.1514510303525 -59.58731605916525,270.3203104953167" fill="#065f46" stroke="none"/><polygon points="-16.015521034536157,242.19669405307383 -36.270514436289986,256.1514510303525 -36.270514436289986,278.1514510303525 -16.015521034536157,264.1966940530738" fill="#a7f3d0" stroke="none"/><polygon points="-39.332322657411424,234.36555351803798 -16.015521034536157,242.19669405307383 -36.270514436289986,256.1514510303525 -59.58731605916525,248.3203104953167" fill="#10b981" stroke="none"/></g><g><polygon points="-59.58731605916525,226.3203104953167 -36.270514436289986,234.15145103035255 -36.270514436289986,256.1514510303525 -59.58731605916525,248.3203104953167" fill="#065f46" stroke="none"/><polygon points="-16.015521034536157,220.19669405307383 -36.270514436289986,234.15145103035255 -36.270514436289986,256.1514510303525 -16.015521034536157,242.19669405307383" fill="#a7f3d0" stroke="none"/><polygon points="-39.332322657411424,212.36555351803798 -16.015521034536157,220.19669405307383 -36.270514436289986,234.15145103035255 -59.58731605916525,226.3203104953167" fill="#10b981" stroke="none"/></g><g><polygon points="-36.27051443628999,256.1514510303525 -12.953712813414725,263.98259156538836 -12.953712813414725,285.98259156538836 -36.27051443628999,278.1514510303525" fill="#065f46" stroke="none"/><polygon points="7.301280588339104,250.02783458810967 -12.953712813414725,263.98259156538836 -12.953712813414725,285.98259156538836 7.301280588339104,272.02783458810967" fill="#a7f3d0" stroke="none"/><polygon points="-16.015521034536164,242.19669405307383 7.301280588339104,250.02783458810967 -12.953712813414725,263.98259156538836 -36.27051443628999,256.1514510303525" fill="#10b981" stroke="none"/></g><g><polygon points="-36.27051443628999,234.15145103035255 -12.953712813414725,241.9825915653884 -12.953712813414725,263.98259156538836 -36.27051443628999,256.1514510303525" fill="#065f46" stroke="none"/><polygon points="7.301280588339104,228.02783458810967 -12.953712813414725,241.9825915653884 -12.953712813414725,263.98259156538836 7.301280588339104,250.02783458810967" fill="#a7f3d0" stroke="none"/><polygon points="-16.015521034536164,220.19669405307383 7.301280588339104,228.02783458810967 -12.953712813414725,241.9825915653884 -36.27051443628999,234.15145103035255" fill="#10b981" stroke="none"/></g><g><polygon points="-79.84230946091907,262.27506747259537 -56.525507838043794,270.1062080076312 -56.525507838043794,292.1062080076312 -79.84230946091907,284.27506747259537" fill="#065f46" stroke="none"/><polygon points="-36.270514436289965,256.1514510303525 -56.525507838043794,270.1062080076312 -56.525507838043794,292.1062080076312 -36.270514436289965,278.1514510303525" fill="#a7f3d0" stroke="none"/><polygon points="-59.58731605916523,248.32031049531668 -36.270514436289965,256.1514510303525 -56.525507838043794,270.1062080076312 -79.84230946091907,262.27506747259537" fill="#10b981" stroke="none"/></g><g><polygon points="-79.84230946091907,240.2750674725954 -56.525507838043794,248.10620800763124 -56.525507838043794,270.10620800763127 -79.84230946091907,262.2750674725954" fill="#065f46" stroke="none"/><polygon points="-36.270514436289965,234.15145103035252 -56.525507838043794,248.10620800763124 -56.525507838043794,270.10620800763127 -36.270514436289965,256.1514510303525" fill="#a7f3d0" stroke="none"/><polygon points="-59.58731605916523,226.32031049531668 -36.270514436289965,234.15145103035252 -56.525507838043794,248.10620800763124 -79.84230946091907,240.2750674725954" fill="#10b981" stroke="none"/></g><g><polygon points="-56.5255078380438,270.1062080076312 -33.20870621516853,277.93734854266705 -33.20870621516853,299.93734854266705 -56.5255078380438,292.1062080076312" fill="#065f46" stroke="none"/><polygon points="-12.953712813414704,263.98259156538836 -33.20870621516853,277.93734854266705 -33.20870621516853,299.93734854266705 -12.953712813414704,285.98259156538836" fill="#a7f3d0" stroke="none"/><polygon points="-36.27051443628997,256.1514510303525 -12.953712813414704,263.98259156538836 -33.20870621516853,277.93734854266705 -56.5255078380438,270.1062080076312" fill="#10b981" stroke="none"/></g><g><polygon points="-56.5255078380438,248.10620800763124 -33.20870621516853,255.93734854266708 -33.20870621516853,277.9373485426671 -56.5255078380438,270.10620800763127" fill="#065f46" stroke="none"/><polygon points="-12.953712813414704,241.98259156538836 -33.20870621516853,255.93734854266708 -33.20870621516853,277.9373485426671 -12.953712813414704,263.98259156538836" fill="#a7f3d0" stroke="none"/><polygon points="-36.27051443628997,234.15145103035252 -12.953712813414704,241.98259156538836 -33.20870621516853,255.93734854266708 -56.5255078380438,248.10620800763124" fill="#10b981" stroke="none"/></g><g><polygon points="-100.0973028626729,276.2298244498741 -76.78050123979763,284.06096498490996 -76.78050123979763,306.06096498490996 -100.0973028626729,298.2298244498741" fill="#065f46" stroke="none"/><polygon points="-56.5255078380438,270.10620800763127 -76.78050123979763,284.06096498490996 -76.78050123979763,306.06096498490996 -56.5255078380438,292.10620800763127" fill="#a7f3d0" stroke="none"/><polygon points="-79.84230946091907,262.2750674725954 -56.5255078380438,270.10620800763127 -76.78050123979763,284.06096498490996 -100.0973028626729,276.2298244498741" fill="#10b981" stroke="none"/></g><g><polygon points="-100.0973028626729,254.22982444987414 -76.78050123979763,262.06096498490996 -76.78050123979763,284.06096498490996 -100.0973028626729,276.2298244498742" fill="#065f46" stroke="none"/><polygon points="-56.5255078380438,248.10620800763127 -76.78050123979763,262.06096498490996 -76.78050123979763,284.06096498490996 -56.5255078380438,270.10620800763127" fill="#a7f3d0" stroke="none"/><polygon points="-79.84230946091907,240.27506747259542 -56.5255078380438,248.10620800763127 -76.78050123979763,262.06096498490996 -100.0973028626729,254.22982444987414" fill="#10b981" stroke="none"/></g><g><polygon points="-76.78050123979764,284.06096498490996 -53.46369961692237,291.8921055199458 -53.46369961692237,313.8921055199458 -76.78050123979764,306.06096498490996" fill="#065f46" stroke="none"/><polygon points="-33.20870621516854,277.9373485426671 -53.46369961692237,291.8921055199458 -53.46369961692237,313.8921055199458 -33.20870621516854,299.9373485426671" fill="#a7f3d0" stroke="none"/><polygon points="-56.52550783804381,270.10620800763127 -33.20870621516854,277.9373485426671 -53.46369961692237,291.8921055199458 -76.78050123979764,284.06096498490996" fill="#10b981" stroke="none"/></g><g><polygon points="-76.78050123979764,262.06096498490996 -53.46369961692237,269.8921055199458 -53.46369961692237,291.8921055199458 -76.78050123979764,284.06096498490996" fill="#065f46" stroke="none"/><polygon points="-33.20870621516854,255.9373485426671 -53.46369961692237,269.8921055199458 -53.46369961692237,291.8921055199458 -33.20870621516854,277.9373485426671" fill="#a7f3d0" stroke="none"/><polygon points="-56.52550783804381,248.10620800763127 -33.20870621516854,255.9373485426671 -53.46369961692237,269.8921055199458 -76.78050123979764,262.06096498490996" fill="#10b981" stroke="none"/></g><g><polygon points="-120.35229626442671,290.1845814271528 -97.03549464155145,298.01572196218865 -97.03549464155145,320.01572196218865 -120.35229626442671,312.1845814271528" fill="#065f46" stroke="none"/><polygon points="-76.78050123979762,284.06096498490996 -97.03549464155145,298.01572196218865 -97.03549464155145,320.01572196218865 -76.78050123979762,306.06096498490996" fill="#a7f3d0" stroke="none"/><polygon points="-100.09730286267288,276.2298244498741 -76.78050123979762,284.06096498490996 -97.03549464155145,298.01572196218865 -120.35229626442671,290.1845814271528" fill="#10b981" stroke="none"/></g><g><polygon points="-120.35229626442671,268.1845814271528 -97.03549464155145,276.01572196218865 -97.03549464155145,298.01572196218865 -120.35229626442671,290.1845814271528" fill="#065f46" stroke="none"/><polygon points="-76.78050123979762,262.06096498490996 -97.03549464155145,276.01572196218865 -97.03549464155145,298.01572196218865 -76.78050123979762,284.06096498490996" fill="#a7f3d0" stroke="none"/><polygon points="-100.09730286267288,254.22982444987412 -76.78050123979762,262.06096498490996 -97.03549464155145,276.01572196218865 -120.35229626442671,268.1845814271528" fill="#10b981" stroke="none"/></g><g><polygon points="-97.03549464155145,298.01572196218865 -73.71869301867618,305.8468624972245 -73.71869301867618,327.8468624972245 -97.03549464155145,320.01572196218865" fill="#065f46" stroke="none"/><polygon points="-53.46369961692235,291.8921055199458 -73.71869301867618,305.8468624972245 -73.71869301867618,327.8468624972245 -53.46369961692235,313.8921055199458" fill="#a7f3d0" stroke="none"/><polygon points="-76.78050123979762,284.06096498490996 -53.46369961692235,291.8921055199458 -73.71869301867618,305.8468624972245 -97.03549464155145,298.01572196218865" fill="#10b981" stroke="none"/></g><g><polygon points="-97.03549464155145,276.01572196218865 -73.71869301867618,283.8468624972245 -73.71869301867618,305.8468624972245 -97.03549464155145,298.01572196218865" fill="#065f46" stroke="none"/><polygon points="-53.46369961692235,269.8921055199458 -73.71869301867618,283.8468624972245 -73.71869301867618,305.8468624972245 -53.46369961692235,291.8921055199458" fill="#a7f3d0" stroke="none"/><polygon points="-76.78050123979762,262.06096498490996 -53.46369961692235,269.8921055199458 -73.71869301867618,283.8468624972245 -97.03549464155145,276.01572196218865" fill="#10b981" stroke="none"/></g><g><polygon points="-140.60728966618055,304.1393384044315 -117.29048804330529,311.97047893946734 -117.29048804330529,333.97047893946734 -140.60728966618055,326.1393384044315" fill="#065f46" stroke="none"/><polygon points="-97.03549464155145,298.01572196218865 -117.29048804330529,311.97047893946734 -117.29048804330529,333.97047893946734 -97.03549464155145,320.01572196218865" fill="#a7f3d0" stroke="none"/><polygon points="-120.35229626442671,290.1845814271528 -97.03549464155145,298.01572196218865 -117.29048804330529,311.97047893946734 -140.60728966618055,304.1393384044315" fill="#10b981" stroke="none"/></g><g><polygon points="-140.60728966618055,282.1393384044315 -117.29048804330529,289.97047893946734 -117.29048804330529,311.97047893946734 -140.60728966618055,304.1393384044315" fill="#065f46" stroke="none"/><polygon points="-97.03549464155145,276.01572196218865 -117.29048804330529,289.97047893946734 -117.29048804330529,311.97047893946734 -97.03549464155145,298.01572196218865" fill="#a7f3d0" stroke="none"/><polygon points="-120.35229626442671,268.1845814271528 -97.03549464155145,276.01572196218865 -117.29048804330529,289.97047893946734 -140.60728966618055,282.1393384044315" fill="#10b981" stroke="none"/></g><g><polygon points="-117.29048804330529,311.97047893946734 -93.97368642043003,319.8016194745032 -93.97368642043003,341.8016194745032 -117.29048804330529,333.97047893946734" fill="#065f46" stroke="none"/><polygon points="-73.71869301867619,305.8468624972245 -93.97368642043003,319.8016194745032 -93.97368642043003,341.8016194745032 -73.71869301867619,327.8468624972245" fill="#a7f3d0" stroke="none"/><polygon points="-97.03549464155145,298.01572196218865 -73.71869301867619,305.8468624972245 -93.97368642043003,319.8016194745032 -117.29048804330529,311.97047893946734" fill="#10b981" stroke="none"/></g><g><polygon points="-117.29048804330529,289.97047893946734 -93.97368642043003,297.8016194745032 -93.97368642043003,319.8016194745032 -117.29048804330529,311.97047893946734" fill="#065f46" stroke="none"/><polygon points="-73.71869301867619,283.8468624972245 -93.97368642043003,297.8016194745032 -93.97368642043003,319.8016194745032 -73.71869301867619,305.8468624972245" fill="#a7f3d0" stroke="none"/><polygon points="-97.03549464155145,276.01572196218865 -73.71869301867619,283.8468624972245 -93.97368642043003,297.8016194745032 -117.29048804330529,289.97047893946734" fill="#10b981" stroke="none"/></g><g><polygon points="-160.86228306793438,318.09409538171025 -137.54548144505912,325.9252359167461 -137.54548144505912,347.9252359167461 -160.86228306793438,340.09409538171025" fill="#065f46" stroke="none"/><polygon points="-117.29048804330529,311.9704789394674 -137.54548144505912,325.9252359167461 -137.54548144505912,347.9252359167461 -117.29048804330529,333.9704789394674" fill="#a7f3d0" stroke="none"/><polygon points="-140.60728966618055,304.13933840443156 -117.29048804330529,311.9704789394674 -137.54548144505912,325.9252359167461 -160.86228306793438,318.09409538171025" fill="#10b981" stroke="none"/></g><g><polygon points="-160.86228306793438,296.09409538171025 -137.54548144505912,303.9252359167461 -137.54548144505912,325.9252359167461 -160.86228306793438,318.09409538171025" fill="#065f46" stroke="none"/><polygon points="-117.29048804330529,289.9704789394674 -137.54548144505912,303.9252359167461 -137.54548144505912,325.9252359167461 -117.29048804330529,311.9704789394674" fill="#a7f3d0" stroke="none"/><polygon points="-140.60728966618055,282.13933840443156 -117.29048804330529,289.9704789394674 -137.54548144505912,303.9252359167461 -160.86228306793438,296.09409538171025" fill="#10b981" stroke="none"/></g><g><polygon points="-291.57766814182173,336.46494470843885 -268.26086651894644,344.2960852434747 -268.26086651894644,366.2960852434747 -291.57766814182173,358.46494470843885" fill="#065f46" stroke="none"/><polygon points="-248.00587311719264,330.341328266196 -268.26086651894644,344.2960852434747 -268.26086651894644,366.2960852434747 -248.00587311719264,352.341328266196" fill="#a7f3d0" stroke="none"/><polygon points="-271.3226747400679,322.51018773116016 -248.00587311719264,330.341328266196 -268.26086651894644,344.2960852434747 -291.57766814182173,336.46494470843885" fill="#10b981" stroke="none"/></g><g><polygon points="-291.57766814182173,314.46494470843885 -268.26086651894644,322.2960852434747 -268.26086651894644,344.2960852434747 -291.57766814182173,336.46494470843885" fill="#065f46" stroke="none"/><polygon points="-248.00587311719264,308.341328266196 -268.26086651894644,322.2960852434747 -268.26086651894644,344.2960852434747 -248.00587311719264,330.341328266196" fill="#a7f3d0" stroke="none"/><polygon points="-271.3226747400679,300.51018773116016 -248.00587311719264,308.341328266196 -268.26086651894644,322.2960852434747 -291.57766814182173,314.46494470843885" fill="#10b981" stroke="none"/></g><g><polygon points="-137.54548144505912,325.9252359167461 -114.22867982218386,333.75637645178193 -114.22867982218386,355.75637645178193 -137.54548144505912,347.9252359167461" fill="#065f46" stroke="none"/><polygon points="-93.97368642043003,319.80161947450324 -114.22867982218386,333.75637645178193 -114.22867982218386,355.75637645178193 -93.97368642043003,341.80161947450324" fill="#a7f3d0" stroke="none"/><polygon points="-117.29048804330529,311.9704789394674 -93.97368642043003,319.80161947450324 -114.22867982218386,333.75637645178193 -137.54548144505912,325.9252359167461" fill="#10b981" stroke="none"/></g><g><polygon points="-137.54548144505912,303.9252359167461 -114.22867982218386,311.75637645178193 -114.22867982218386,333.75637645178193 -137.54548144505912,325.9252359167461" fill="#065f46" stroke="none"/><polygon points="-93.97368642043003,297.80161947450324 -114.22867982218386,311.75637645178193 -114.22867982218386,333.75637645178193 -93.97368642043003,319.80161947450324" fill="#a7f3d0" stroke="none"/><polygon points="-117.29048804330529,289.9704789394674 -93.97368642043003,297.80161947450324 -114.22867982218386,311.75637645178193 -137.54548144505912,303.9252359167461" fill="#10b981" stroke="none"/></g><g><polygon points="-181.11727646968822,332.04885235898894 -157.80047484681296,339.8799928940248 -157.80047484681296,361.8799928940248 -181.11727646968822,354.04885235898894" fill="#065f46" stroke="none"/><polygon points="-137.54548144505912,325.9252359167461 -157.80047484681296,339.8799928940248 -157.80047484681296,361.8799928940248 -137.54548144505912,347.9252359167461" fill="#a7f3d0" stroke="none"/><polygon points="-160.86228306793438,318.09409538171025 -137.54548144505912,325.9252359167461 -157.80047484681296,339.8799928940248 -181.11727646968822,332.04885235898894" fill="#10b981" stroke="none"/></g><g><polygon points="-181.11727646968822,310.04885235898894 -157.80047484681296,317.8799928940248 -157.80047484681296,339.8799928940248 -181.11727646968822,332.04885235898894" fill="#065f46" stroke="none"/><polygon points="-137.54548144505912,303.9252359167461 -157.80047484681296,317.8799928940248 -157.80047484681296,339.8799928940248 -137.54548144505912,325.9252359167461" fill="#a7f3d0" stroke="none"/><polygon points="-160.86228306793438,296.09409538171025 -137.54548144505912,303.9252359167461 -157.80047484681296,317.8799928940248 -181.11727646968822,310.04885235898894" fill="#10b981" stroke="none"/></g><g><polygon points="-311.83266154357557,350.4197016857176 -288.5158599207003,358.25084222075344 -288.5158599207003,380.25084222075344 -311.83266154357557,372.4197016857176" fill="#065f46" stroke="none"/><polygon points="-268.26086651894644,344.29608524347475 -288.5158599207003,358.25084222075344 -288.5158599207003,380.25084222075344 -268.26086651894644,366.29608524347475" fill="#a7f3d0" stroke="none"/><polygon points="-291.57766814182173,336.4649447084389 -268.26086651894644,344.29608524347475 -288.5158599207003,358.25084222075344 -311.83266154357557,350.4197016857176" fill="#10b981" stroke="none"/></g><g><polygon points="-311.83266154357557,328.4197016857176 -288.5158599207003,336.25084222075344 -288.5158599207003,358.25084222075344 -311.83266154357557,350.4197016857176" fill="#065f46" stroke="none"/><polygon points="-268.26086651894644,322.29608524347475 -288.5158599207003,336.25084222075344 -288.5158599207003,358.25084222075344 -268.26086651894644,344.29608524347475" fill="#a7f3d0" stroke="none"/><polygon points="-291.57766814182173,314.4649447084389 -268.26086651894644,322.29608524347475 -288.5158599207003,336.25084222075344 -311.83266154357557,328.4197016857176" fill="#10b981" stroke="none"/></g><g><polygon points="-157.80047484681296,339.8799928940248 -134.4836732239377,347.7111334290606 -134.4836732239377,369.7111334290606 -157.80047484681296,361.8799928940248" fill="#065f46" stroke="none"/><polygon points="-114.22867982218386,333.75637645178193 -134.4836732239377,347.7111334290606 -134.4836732239377,369.7111334290606 -114.22867982218386,355.75637645178193" fill="#a7f3d0" stroke="none"/><polygon points="-137.54548144505912,325.9252359167461 -114.22867982218386,333.75637645178193 -134.4836732239377,347.7111334290606 -157.80047484681296,339.8799928940248" fill="#10b981" stroke="none"/></g><g><polygon points="-157.80047484681296,317.8799928940248 -134.4836732239377,325.7111334290606 -134.4836732239377,347.7111334290606 -157.80047484681296,339.8799928940248" fill="#065f46" stroke="none"/><polygon points="-114.22867982218386,311.75637645178193 -134.4836732239377,325.7111334290606 -134.4836732239377,347.7111334290606 -114.22867982218386,333.75637645178193" fill="#a7f3d0" stroke="none"/><polygon points="-137.54548144505912,303.9252359167461 -114.22867982218386,311.75637645178193 -134.4836732239377,325.7111334290606 -157.80047484681296,317.8799928940248" fill="#10b981" stroke="none"/></g><g><polygon points="-201.37226987144206,346.00360933626763 -178.0554682485668,353.8347498713035 -178.0554682485668,375.8347498713035 -201.37226987144206,368.00360933626763" fill="#065f46" stroke="none"/><polygon points="-157.80047484681296,339.8799928940248 -178.0554682485668,353.8347498713035 -178.0554682485668,375.8347498713035 -157.80047484681296,361.8799928940248" fill="#a7f3d0" stroke="none"/><polygon points="-181.11727646968822,332.04885235898894 -157.80047484681296,339.8799928940248 -178.0554682485668,353.8347498713035 -201.37226987144206,346.00360933626763" fill="#10b981" stroke="none"/></g><g><polygon points="-201.37226987144206,324.00360933626763 -178.0554682485668,331.8347498713035 -178.0554682485668,353.8347498713035 -201.37226987144206,346.00360933626763" fill="#065f46" stroke="none"/><polygon points="-157.80047484681296,317.8799928940248 -178.0554682485668,331.8347498713035 -178.0554682485668,353.8347498713035 -157.80047484681296,339.8799928940248" fill="#a7f3d0" stroke="none"/><polygon points="-181.11727646968822,310.04885235898894 -157.80047484681296,317.8799928940248 -178.0554682485668,331.8347498713035 -201.37226987144206,324.00360933626763" fill="#10b981" stroke="none"/></g><g><polygon points="-288.5158599207003,358.2508422207534 -265.199058297825,366.0819827557892 -265.199058297825,388.0819827557892 -288.5158599207003,380.2508422207534" fill="#065f46" stroke="none"/><polygon points="-244.94406489607118,352.12722577851054 -265.199058297825,366.0819827557892 -265.199058297825,388.0819827557892 -244.94406489607118,374.12722577851054" fill="#a7f3d0" stroke="none"/><polygon points="-268.26086651894644,344.2960852434747 -244.94406489607118,352.12722577851054 -265.199058297825,366.0819827557892 -288.5158599207003,358.2508422207534" fill="#10b981" stroke="none"/></g><g><polygon points="-288.5158599207003,336.2508422207534 -265.199058297825,344.0819827557892 -265.199058297825,366.0819827557892 -288.5158599207003,358.2508422207534" fill="#065f46" stroke="none"/><polygon points="-244.94406489607118,330.12722577851054 -265.199058297825,344.0819827557892 -265.199058297825,366.0819827557892 -244.94406489607118,352.12722577851054" fill="#a7f3d0" stroke="none"/><polygon points="-268.26086651894644,322.2960852434747 -244.94406489607118,330.12722577851054 -265.199058297825,344.0819827557892 -288.5158599207003,336.2508422207534" fill="#10b981" stroke="none"/></g><g><polygon points="-178.0554682485668,353.8347498713035 -154.73866662569154,361.6658904063393 -154.73866662569154,383.6658904063393 -178.0554682485668,375.8347498713035" fill="#065f46" stroke="none"/><polygon points="-134.4836732239377,347.7111334290606 -154.73866662569154,361.6658904063393 -154.73866662569154,383.6658904063393 -134.4836732239377,369.7111334290606" fill="#a7f3d0" stroke="none"/><polygon points="-157.80047484681296,339.8799928940248 -134.4836732239377,347.7111334290606 -154.73866662569154,361.6658904063393 -178.0554682485668,353.8347498713035" fill="#10b981" stroke="none"/></g><g><polygon points="-178.0554682485668,331.8347498713035 -154.73866662569154,339.6658904063393 -154.73866662569154,361.6658904063393 -178.0554682485668,353.8347498713035" fill="#065f46" stroke="none"/><polygon points="-134.4836732239377,325.7111334290606 -154.73866662569154,339.6658904063393 -154.73866662569154,361.6658904063393 -134.4836732239377,347.7111334290606" fill="#a7f3d0" stroke="none"/><polygon points="-157.80047484681296,317.8799928940248 -134.4836732239377,325.7111334290606 -154.73866662569154,339.6658904063393 -178.0554682485668,331.8347498713035" fill="#10b981" stroke="none"/></g><g><polygon points="-221.6272632731959,359.9583663135464 -198.31046165032063,367.7895068485822 -198.31046165032063,389.7895068485822 -221.6272632731959,381.9583663135464" fill="#065f46" stroke="none"/><polygon points="-178.0554682485668,353.83474987130353 -198.31046165032063,367.7895068485822 -198.31046165032063,389.7895068485822 -178.0554682485668,375.83474987130353" fill="#a7f3d0" stroke="none"/><polygon points="-201.37226987144206,346.0036093362677 -178.0554682485668,353.83474987130353 -198.31046165032063,367.7895068485822 -221.6272632731959,359.9583663135464" fill="#10b981" stroke="none"/></g><g><polygon points="-221.6272632731959,337.9583663135464 -198.31046165032063,345.7895068485822 -198.31046165032063,367.7895068485822 -221.6272632731959,359.9583663135464" fill="#065f46" stroke="none"/><polygon points="-178.0554682485668,331.83474987130353 -198.31046165032063,345.7895068485822 -198.31046165032063,367.7895068485822 -178.0554682485668,353.83474987130353" fill="#a7f3d0" stroke="none"/><polygon points="-201.37226987144206,324.0036093362677 -178.0554682485668,331.83474987130353 -198.31046165032063,345.7895068485822 -221.6272632731959,337.9583663135464" fill="#10b981" stroke="none"/></g><g><polygon points="-265.199058297825,366.0819827557892 -241.88225667494973,373.91312329082507 -241.88225667494973,395.91312329082507 -265.199058297825,388.0819827557892" fill="#065f46" stroke="none"/><polygon points="-221.6272632731959,359.9583663135464 -241.88225667494973,373.91312329082507 -241.88225667494973,395.91312329082507 -221.6272632731959,381.9583663135464" fill="#a7f3d0" stroke="none"/><polygon points="-244.94406489607115,352.12722577851054 -221.6272632731959,359.9583663135464 -241.88225667494973,373.91312329082507 -265.199058297825,366.0819827557892" fill="#10b981" stroke="none"/></g><g><polygon points="-265.199058297825,344.0819827557892 -241.88225667494973,351.91312329082507 -241.88225667494973,373.91312329082507 -265.199058297825,366.0819827557892" fill="#065f46" stroke="none"/><polygon points="-221.6272632731959,337.9583663135464 -241.88225667494973,351.91312329082507 -241.88225667494973,373.91312329082507 -221.6272632731959,359.9583663135464" fill="#a7f3d0" stroke="none"/><polygon points="-244.94406489607115,330.12722577851054 -221.6272632731959,337.9583663135464 -241.88225667494973,351.91312329082507 -265.199058297825,344.0819827557892" fill="#10b981" stroke="none"/></g><g><polygon points="-308.7708533224541,372.20559919803213 -285.4540516995788,380.036739733068 -285.4540516995788,402.036739733068 -308.7708533224541,394.20559919803213" fill="#065f46" stroke="none"/><polygon points="-265.199058297825,366.0819827557893 -285.4540516995788,380.036739733068 -285.4540516995788,402.036739733068 -265.199058297825,388.0819827557893" fill="#a7f3d0" stroke="none"/><polygon points="-288.5158599207003,358.25084222075344 -265.199058297825,366.0819827557893 -285.4540516995788,380.036739733068 -308.7708533224541,372.20559919803213" fill="#10b981" stroke="none"/></g><g><polygon points="-308.7708533224541,350.20559919803213 -285.4540516995788,358.036739733068 -285.4540516995788,380.036739733068 -308.7708533224541,372.20559919803213" fill="#065f46" stroke="none"/><polygon points="-265.199058297825,344.0819827557893 -285.4540516995788,358.036739733068 -285.4540516995788,380.036739733068 -265.199058297825,366.0819827557893" fill="#a7f3d0" stroke="none"/><polygon points="-288.5158599207003,336.25084222075344 -265.199058297825,344.0819827557893 -285.4540516995788,358.036739733068 -308.7708533224541,350.20559919803213" fill="#10b981" stroke="none"/></g><g><polygon points="-198.31046165032063,367.7895068485822 -174.99366002744537,375.62064738361806 -174.99366002744537,397.62064738361806 -198.31046165032063,389.7895068485822" fill="#065f46" stroke="none"/><polygon points="-154.73866662569154,361.6658904063394 -174.99366002744537,375.62064738361806 -174.99366002744537,397.62064738361806 -154.73866662569154,383.6658904063394" fill="#a7f3d0" stroke="none"/><polygon points="-178.0554682485668,353.83474987130353 -154.73866662569154,361.6658904063394 -174.99366002744537,375.62064738361806 -198.31046165032063,367.7895068485822" fill="#10b981" stroke="none"/></g><g><polygon points="-198.31046165032063,345.7895068485822 -174.99366002744537,353.62064738361806 -174.99366002744537,375.62064738361806 -198.31046165032063,367.7895068485822" fill="#065f46" stroke="none"/><polygon points="-154.73866662569154,339.6658904063394 -174.99366002744537,353.62064738361806 -174.99366002744537,375.62064738361806 -154.73866662569154,361.6658904063394" fill="#a7f3d0" stroke="none"/><polygon points="-178.0554682485668,331.83474987130353 -154.73866662569154,339.6658904063394 -174.99366002744537,353.62064738361806 -198.31046165032063,345.7895068485822" fill="#10b981" stroke="none"/></g><g><polygon points="-241.88225667494973,373.91312329082507 -218.56545505207447,381.7442638258609 -218.56545505207447,403.7442638258609 -241.88225667494973,395.91312329082507" fill="#065f46" stroke="none"/><polygon points="-198.31046165032063,367.7895068485822 -218.56545505207447,381.7442638258609 -218.56545505207447,403.7442638258609 -198.31046165032063,389.7895068485822" fill="#a7f3d0" stroke="none"/><polygon points="-221.6272632731959,359.9583663135464 -198.31046165032063,367.7895068485822 -218.56545505207447,381.7442638258609 -241.88225667494973,373.91312329082507" fill="#10b981" stroke="none"/></g><g><polygon points="-241.88225667494973,351.91312329082507 -218.56545505207447,359.7442638258609 -218.56545505207447,381.7442638258609 -241.88225667494973,373.91312329082507" fill="#065f46" stroke="none"/><polygon points="-198.31046165032063,345.7895068485822 -218.56545505207447,359.7442638258609 -218.56545505207447,381.7442638258609 -198.31046165032063,367.7895068485822" fill="#a7f3d0" stroke="none"/><polygon points="-221.6272632731959,337.9583663135464 -198.31046165032063,345.7895068485822 -218.56545505207447,359.7442638258609 -241.88225667494973,351.91312329082507" fill="#10b981" stroke="none"/></g><g><polygon points="-285.4540516995788,380.036739733068 -262.13725007670354,387.8678802681038 -262.13725007670354,409.8678802681038 -285.4540516995788,402.036739733068" fill="#065f46" stroke="none"/><polygon points="-241.88225667494973,373.9131232908251 -262.13725007670354,387.8678802681038 -262.13725007670354,409.8678802681038 -241.88225667494973,395.9131232908251" fill="#a7f3d0" stroke="none"/><polygon points="-265.199058297825,366.0819827557893 -241.88225667494973,373.9131232908251 -262.13725007670354,387.8678802681038 -285.4540516995788,380.036739733068" fill="#10b981" stroke="none"/></g><g><polygon points="-285.4540516995788,358.036739733068 -262.13725007670354,365.8678802681038 -262.13725007670354,387.8678802681038 -285.4540516995788,380.036739733068" fill="#065f46" stroke="none"/><polygon points="-241.88225667494973,351.9131232908251 -262.13725007670354,365.8678802681038 -262.13725007670354,387.8678802681038 -241.88225667494973,373.9131232908251" fill="#a7f3d0" stroke="none"/><polygon points="-265.199058297825,344.0819827557893 -241.88225667494973,351.9131232908251 -262.13725007670354,365.8678802681038 -285.4540516995788,358.036739733068" fill="#10b981" stroke="none"/></g><g><polygon points="-218.56545505207447,381.7442638258609 -195.2486534291992,389.57540436089675 -195.2486534291992,411.57540436089675 -218.56545505207447,403.7442638258609" fill="#065f46" stroke="none"/><polygon points="-174.99366002744537,375.62064738361806 -195.2486534291992,389.57540436089675 -195.2486534291992,411.57540436089675 -174.99366002744537,397.62064738361806" fill="#a7f3d0" stroke="none"/><polygon points="-198.31046165032063,367.7895068485822 -174.99366002744537,375.62064738361806 -195.2486534291992,389.57540436089675 -218.56545505207447,381.7442638258609" fill="#10b981" stroke="none"/></g><g><polygon points="-218.56545505207447,359.7442638258609 -195.2486534291992,367.57540436089675 -195.2486534291992,389.57540436089675 -218.56545505207447,381.7442638258609" fill="#065f46" stroke="none"/><polygon points="-174.99366002744537,353.62064738361806 -195.2486534291992,367.57540436089675 -195.2486534291992,389.57540436089675 -174.99366002744537,375.62064738361806" fill="#a7f3d0" stroke="none"/><polygon points="-198.31046165032063,345.7895068485822 -174.99366002744537,353.62064738361806 -195.2486534291992,367.57540436089675 -218.56545505207447,359.7442638258609" fill="#10b981" stroke="none"/></g><g><polygon points="-262.13725007670354,387.8678802681038 -238.8204484538283,395.69902080313966 -238.8204484538283,417.69902080313966 -262.13725007670354,409.8678802681038" fill="#065f46" stroke="none"/><polygon points="-218.56545505207447,381.74426382586097 -238.8204484538283,395.69902080313966 -238.8204484538283,417.69902080313966 -218.56545505207447,403.74426382586097" fill="#a7f3d0" stroke="none"/><polygon points="-241.88225667494973,373.9131232908251 -218.56545505207447,381.74426382586097 -238.8204484538283,395.69902080313966 -262.13725007670354,387.8678802681038" fill="#10b981" stroke="none"/></g><g><polygon points="-262.13725007670354,365.8678802681038 -238.8204484538283,373.69902080313966 -238.8204484538283,395.69902080313966 -262.13725007670354,387.8678802681038" fill="#065f46" stroke="none"/><polygon points="-218.56545505207447,359.74426382586097 -238.8204484538283,373.69902080313966 -238.8204484538283,395.69902080313966 -218.56545505207447,381.74426382586097" fill="#a7f3d0" stroke="none"/><polygon points="-241.88225667494973,351.9131232908251 -218.56545505207447,359.74426382586097 -238.8204484538283,373.69902080313966 -262.13725007670354,365.8678802681038" fill="#10b981" stroke="none"/></g></g>
  

</svg>