<?xml version="1.0" encoding="UTF-8"?>
<svg id="art" width="520" height="560" viewBox="-264.52943420410156 -21.34000015258789 492.37786865234375 337.04876708984375" xmlns="http://www.w3.org/2000/svg" style="--bg: #0b1220;">

  

  <g id="cubes"><g><polygon points="-20.411766683345377,51.38830999112214 3.06928484474151,61.28801683254465 3.06928484474151,82.62801683254465 -20.411766683345377,72.72830999112215" fill="#1d4ed8" stroke="none"/><polygon points="23.481051528086887,49.89970684142251 3.06928484474151,61.28801683254465 3.06928484474151,82.62801683254465 23.481051528086887,71.2397068414225" fill="#93c5fd" stroke="none"/><polygon points="0,40 23.481051528086887,49.89970684142251 3.06928484474151,61.28801683254465 -20.411766683345377,51.38830999112214" fill="#38bdf8" stroke="none"/></g><g><polygon points="-20.411766683345377,30.048309991122142 3.06928484474151,39.94801683254465 3.06928484474151,61.288016832544656 -20.411766683345377,51.38830999112214" fill="#1d4ed8" stroke="none"/><polygon points="23.481051528086887,28.559706841422507 3.06928484474151,39.94801683254465 3.06928484474151,61.288016832544656 23.481051528086887,49.89970684142251" fill="#93c5fd" stroke="none"/><polygon points="0,18.66 23.481051528086887,28.559706841422507 3.06928484474151,39.94801683254465 -20.411766683345377,30.048309991122142" fill="#38bdf8" stroke="none"/></g><g><polygon points="3.06928484474151,61.28801683254465 26.550336372828397,71.18772367396716 26.550336372828397,92.52772367396716 3.06928484474151,82.62801683254465" fill="#1d4ed8" stroke="none"/><polygon points="46.962103056173774,59.799413682845014 26.550336372828397,71.18772367396716 26.550336372828397,92.52772367396716 46.962103056173774,81.13941368284502" fill="#93c5fd" stroke="none"/><polygon points="23.481051528086887,49.89970684142251 46.962103056173774,59.799413682845014 26.550336372828397,71.18772367396716 3.06928484474151,61.28801683254465" fill="#38bdf8" stroke="none"/></g><g><polygon points="3.06928484474151,39.94801683254465 26.550336372828397,49.84772367396715 26.550336372828397,71.18772367396716 3.06928484474151,61.288016832544656" fill="#1d4ed8" stroke="none"/><polygon points="46.962103056173774,38.45941368284501 26.550336372828397,49.84772367396715 26.550336372828397,71.18772367396716 46.962103056173774,59.799413682845014" fill="#93c5fd" stroke="none"/><polygon points="23.481051528086887,28.559706841422507 46.962103056173774,38.45941368284501 26.550336372828397,49.84772367396715 3.06928484474151,39.94801683254465" fill="#38bdf8" stroke="none"/></g><g><polygon points="-40.823533366690754,62.776619982244284 -17.342481838603867,72.67632682366678 -17.342481838603867,94.01632682366679 -40.823533366690754,84.11661998224429" fill="#1d4ed8" stroke="none"/><polygon points="3.06928484474151,61.28801683254465 -17.342481838603867,72.67632682366678 -17.342481838603867,94.01632682366679 3.06928484474151,82.62801683254465" fill="#93c5fd" stroke="none"/><polygon points="-20.411766683345377,51.38830999112214 3.06928484474151,61.28801683254465 -17.342481838603867,72.67632682366678 -40.823533366690754,62.776619982244284" fill="#38bdf8" stroke="none"/></g><g><polygon points="-40.823533366690754,41.43661998224428 -17.342481838603867,51.336326823666795 -17.342481838603867,72.6763268236668 -40.823533366690754,62.776619982244284" fill="#1d4ed8" stroke="none"/><polygon points="3.06928484474151,39.94801683254465 -17.342481838603867,51.336326823666795 -17.342481838603867,72.6763268236668 3.06928484474151,61.288016832544656" fill="#93c5fd" stroke="none"/><polygon points="-20.411766683345377,30.048309991122142 3.06928484474151,39.94801683254465 -17.342481838603867,51.336326823666795 -40.823533366690754,41.43661998224428" fill="#38bdf8" stroke="none"/></g><g><polygon points="26.550336372828397,71.18772367396716 50.03138790091529,81.08743051538967 50.03138790091529,102.42743051538967 26.550336372828397,92.52772367396716" fill="#1d4ed8" stroke="none"/><polygon points="70.44315458426067,69.69912052426753 50.03138790091529,81.08743051538967 50.03138790091529,102.42743051538967 70.44315458426067,91.03912052426753" fill="#93c5fd" stroke="none"/><polygon points="46.962103056173774,59.799413682845014 70.44315458426067,69.69912052426753 50.03138790091529,81.08743051538967 26.550336372828397,71.18772367396716" fill="#38bdf8" stroke="none"/></g><g><polygon points="26.550336372828397,49.84772367396715 50.03138790091529,59.74743051538966 50.03138790091529,81.08743051538966 26.550336372828397,71.18772367396716" fill="#1d4ed8" stroke="none"/><polygon points="70.44315458426067,48.35912052426752 50.03138790091529,59.74743051538966 50.03138790091529,81.08743051538966 70.44315458426067,69.69912052426751" fill="#93c5fd" stroke="none"/><polygon points="46.962103056173774,38.45941368284501 70.44315458426067,48.35912052426752 50.03138790091529,59.74743051538966 26.550336372828397,49.84772367396715" fill="#38bdf8" stroke="none"/></g><g><polygon points="-17.342481838603867,72.67632682366678 6.13856968948302,82.5760336650893 6.13856968948302,103.9160336650893 -17.342481838603867,94.01632682366679" fill="#1d4ed8" stroke="none"/><polygon points="26.550336372828397,71.18772367396716 6.13856968948302,82.5760336650893 6.13856968948302,103.9160336650893 26.550336372828397,92.52772367396716" fill="#93c5fd" stroke="none"/><polygon points="3.06928484474151,61.28801683254465 26.550336372828397,71.18772367396716 6.13856968948302,82.5760336650893 -17.342481838603867,72.67632682366678" fill="#38bdf8" stroke="none"/></g><g><polygon points="-17.342481838603867,51.336326823666795 6.13856968948302,61.2360336650893 6.13856968948302,82.5760336650893 -17.342481838603867,72.6763268236668" fill="#1d4ed8" stroke="none"/><polygon points="26.550336372828397,49.84772367396716 6.13856968948302,61.2360336650893 6.13856968948302,82.5760336650893 26.550336372828397,71.18772367396716" fill="#93c5fd" stroke="none"/><polygon points="3.06928484474151,39.94801683254465 26.550336372828397,49.84772367396716 6.13856968948302,61.2360336650893 -17.342481838603867,51.336326823666795" fill="#38bdf8" stroke="none"/></g><g><polygon points="-61.23530005003613,74.16492997336643 -37.75424852194924,84.06463681478893 -37.75424852194924,105.40463681478893 -61.23530005003613,95.50492997336643" fill="#1d4ed8" stroke="none"/><polygon points="-17.342481838603867,72.67632682366678 -37.75424852194924,84.06463681478893 -37.75424852194924,105.40463681478893 -17.342481838603867,94.01632682366679" fill="#93c5fd" stroke="none"/><polygon points="-40.823533366690754,62.776619982244284 -17.342481838603867,72.67632682366678 -37.75424852194924,84.06463681478893 -61.23530005003613,74.16492997336643" fill="#38bdf8" stroke="none"/></g><g><polygon points="-61.23530005003613,52.82492997336642 -37.75424852194924,62.72463681478893 -37.75424852194924,84.06463681478893 -61.23530005003613,74.16492997336643" fill="#1d4ed8" stroke="none"/><polygon points="-17.342481838603867,51.33632682366679 -37.75424852194924,62.72463681478893 -37.75424852194924,84.06463681478893 -17.342481838603867,72.67632682366678" fill="#93c5fd" stroke="none"/><polygon points="-40.823533366690754,41.43661998224428 -17.342481838603867,51.33632682366679 -37.75424852194924,62.72463681478893 -61.23530005003613,52.82492997336642" fill="#38bdf8" stroke="none"/></g><g><polygon points="50.03138790091529,81.08743051538967 73.51243942900217,90.98713735681217 73.51243942900217,112.32713735681217 50.03138790091529,102.42743051538967" fill="#1d4ed8" stroke="none"/><polygon points="93.92420611234755,79.59882736569003 73.51243942900217,90.98713735681217 73.51243942900217,112.32713735681217 93.92420611234755,100.93882736569003" fill="#93c5fd" stroke="none"/><polygon points="70.44315458426067,69.69912052426753 93.92420611234755,79.59882736569003 73.51243942900217,90.98713735681217 50.03138790091529,81.08743051538967" fill="#38bdf8" stroke="none"/></g><g><polygon points="50.03138790091529,59.74743051538967 73.51243942900217,69.64713735681218 73.51243942900217,90.98713735681218 50.03138790091529,81.08743051538967" fill="#1d4ed8" stroke="none"/><polygon points="93.92420611234755,58.25882736569003 73.51243942900217,69.64713735681218 73.51243942900217,90.98713735681218 93.92420611234755,79.59882736569003" fill="#93c5fd" stroke="none"/><polygon points="70.44315458426067,48.359120524267524 93.92420611234755,58.25882736569003 73.51243942900217,69.64713735681218 50.03138790091529,59.74743051538967" fill="#38bdf8" stroke="none"/></g><g><polygon points="6.13856968948302,82.5760336650893 29.619621217569907,92.4757405065118 29.619621217569907,113.8157405065118 6.13856968948302,103.9160336650893" fill="#1d4ed8" stroke="none"/><polygon points="50.031387900915284,81.08743051538966 29.619621217569907,92.4757405065118 29.619621217569907,113.8157405065118 50.031387900915284,102.42743051538966" fill="#93c5fd" stroke="none"/><polygon points="26.550336372828397,71.18772367396716 50.031387900915284,81.08743051538966 29.619621217569907,92.4757405065118 6.13856968948302,82.5760336650893" fill="#38bdf8" stroke="none"/></g><g><polygon points="6.13856968948302,61.236033665089295 29.619621217569907,71.13574050651181 29.619621217569907,92.47574050651181 6.13856968948302,82.5760336650893" fill="#1d4ed8" stroke="none"/><polygon points="50.031387900915284,59.74743051538966 29.619621217569907,71.13574050651181 29.619621217569907,92.47574050651181 50.031387900915284,81.08743051538966" fill="#93c5fd" stroke="none"/><polygon points="26.550336372828397,49.84772367396715 50.031387900915284,59.74743051538966 29.619621217569907,71.13574050651181 6.13856968948302,61.236033665089295" fill="#38bdf8" stroke="none"/></g><g><polygon points="-37.75424852194924,84.06463681478893 -14.273196993862356,93.96434365621143 -14.273196993862356,115.30434365621143 -37.75424852194924,105.40463681478893" fill="#1d4ed8" stroke="none"/><polygon points="6.13856968948302,82.57603366508928 -14.273196993862356,93.96434365621143 -14.273196993862356,115.30434365621143 6.13856968948302,103.91603366508929" fill="#93c5fd" stroke="none"/><polygon points="-17.342481838603867,72.67632682366678 6.13856968948302,82.57603366508928 -14.273196993862356,93.96434365621143 -37.75424852194924,84.06463681478893" fill="#38bdf8" stroke="none"/></g><g><polygon points="-37.75424852194924,62.72463681478892 -14.273196993862356,72.62434365621144 -14.273196993862356,93.96434365621144 -37.75424852194924,84.06463681478893" fill="#1d4ed8" stroke="none"/><polygon points="6.13856968948302,61.23603366508929 -14.273196993862356,72.62434365621144 -14.273196993862356,93.96434365621144 6.13856968948302,82.57603366508928" fill="#93c5fd" stroke="none"/><polygon points="-17.342481838603867,51.33632682366678 6.13856968948302,61.23603366508929 -14.273196993862356,72.62434365621144 -37.75424852194924,62.72463681478892" fill="#38bdf8" stroke="none"/></g><g><polygon points="73.51243942900217,90.98713735681217 96.99349095708905,100.88684419823467 96.99349095708905,122.22684419823467 73.51243942900217,112.32713735681217" fill="#1d4ed8" stroke="none"/><polygon points="117.40525764043443,89.49853420711253 96.99349095708905,100.88684419823467 96.99349095708905,122.22684419823467 117.40525764043443,110.83853420711253" fill="#93c5fd" stroke="none"/><polygon points="93.92420611234755,79.59882736569003 117.40525764043443,89.49853420711253 96.99349095708905,100.88684419823467 73.51243942900217,90.98713735681217" fill="#38bdf8" stroke="none"/></g><g><polygon points="73.51243942900217,69.64713735681217 96.99349095708905,79.54684419823467 96.99349095708905,100.88684419823467 73.51243942900217,90.98713735681217" fill="#1d4ed8" stroke="none"/><polygon points="117.40525764043443,68.15853420711252 96.99349095708905,79.54684419823467 96.99349095708905,100.88684419823467 117.40525764043443,89.49853420711253" fill="#93c5fd" stroke="none"/><polygon points="93.92420611234755,58.258827365690024 117.40525764043443,68.15853420711252 96.99349095708905,79.54684419823467 73.51243942900217,69.64713735681217" fill="#38bdf8" stroke="none"/></g><g><polygon points="29.619621217569915,92.47574050651181 53.100672745656794,102.37544734793433 53.100672745656794,123.71544734793433 29.619621217569915,113.81574050651182" fill="#1d4ed8" stroke="none"/><polygon points="73.51243942900217,90.98713735681218 53.100672745656794,102.37544734793433 53.100672745656794,123.71544734793433 73.51243942900217,112.32713735681219" fill="#93c5fd" stroke="none"/><polygon points="50.03138790091529,81.08743051538967 73.51243942900217,90.98713735681218 53.100672745656794,102.37544734793433 29.619621217569915,92.47574050651181" fill="#38bdf8" stroke="none"/></g><g><polygon points="29.619621217569915,71.13574050651181 53.100672745656794,81.03544734793432 53.100672745656794,102.37544734793433 29.619621217569915,92.47574050651181" fill="#1d4ed8" stroke="none"/><polygon points="73.51243942900217,69.64713735681218 53.100672745656794,81.03544734793432 53.100672745656794,102.37544734793433 73.51243942900217,90.98713735681218" fill="#93c5fd" stroke="none"/><polygon points="50.03138790091529,59.74743051538967 73.51243942900217,69.64713735681218 53.100672745656794,81.03544734793432 29.619621217569915,71.13574050651181" fill="#38bdf8" stroke="none"/></g><g><polygon points="-14.273196993862356,93.96434365621144 9.20785453422453,103.86405049763395 9.20785453422453,125.20405049763396 -14.273196993862356,115.30434365621144" fill="#1d4ed8" stroke="none"/><polygon points="29.619621217569907,92.47574050651181 9.20785453422453,103.86405049763395 9.20785453422453,125.20405049763396 29.619621217569907,113.81574050651182" fill="#93c5fd" stroke="none"/><polygon points="6.13856968948302,82.5760336650893 29.619621217569907,92.47574050651181 9.20785453422453,103.86405049763395 -14.273196993862356,93.96434365621144" fill="#38bdf8" stroke="none"/></g><g><polygon points="-14.273196993862356,72.62434365621144 9.20785453422453,82.52405049763395 9.20785453422453,103.86405049763395 -14.273196993862356,93.96434365621144" fill="#1d4ed8" stroke="none"/><polygon points="29.619621217569907,71.13574050651181 9.20785453422453,82.52405049763395 9.20785453422453,103.86405049763395 29.619621217569907,92.47574050651181" fill="#93c5fd" stroke="none"/><polygon points="6.13856968948302,61.236033665089295 29.619621217569907,71.13574050651181 9.20785453422453,82.52405049763395 -14.273196993862356,72.62434365621144" fill="#38bdf8" stroke="none"/></g><g><polygon points="-58.16601520529462,95.45294680591108 -34.68496367720773,105.35265364733358 -34.68496367720773,126.69265364733359 -58.16601520529462,116.79294680591109" fill="#1d4ed8" stroke="none"/><polygon points="-14.273196993862356,93.96434365621144 -34.68496367720773,105.35265364733358 -34.68496367720773,126.69265364733359 -14.273196993862356,115.30434365621144" fill="#93c5fd" stroke="none"/><polygon points="-37.75424852194924,84.06463681478894 -14.273196993862356,93.96434365621144 -34.68496367720773,105.35265364733358 -58.16601520529462,95.45294680591108" fill="#38bdf8" stroke="none"/></g><g><polygon points="-58.16601520529462,74.11294680591108 -34.68496367720773,84.01265364733358 -34.68496367720773,105.35265364733358 -58.16601520529462,95.45294680591108" fill="#1d4ed8" stroke="none"/><polygon points="-14.273196993862356,72.62434365621144 -34.68496367720773,84.01265364733358 -34.68496367720773,105.35265364733358 -14.273196993862356,93.96434365621144" fill="#93c5fd" stroke="none"/><polygon points="-37.75424852194924,62.72463681478894 -14.273196993862356,72.62434365621144 -34.68496367720773,84.01265364733358 -58.16601520529462,74.11294680591108" fill="#38bdf8" stroke="none"/></g><g><polygon points="96.99349095708905,100.88684419823467 120.47454248517593,110.78655103965717 120.47454248517593,132.12655103965716 96.99349095708905,122.22684419823467" fill="#1d4ed8" stroke="none"/><polygon points="140.8863091685213,99.39824104853503 120.47454248517593,110.78655103965717 120.47454248517593,132.12655103965716 140.8863091685213,120.73824104853503" fill="#93c5fd" stroke="none"/><polygon points="117.40525764043443,89.49853420711253 140.8863091685213,99.39824104853503 120.47454248517593,110.78655103965717 96.99349095708905,100.88684419823467" fill="#38bdf8" stroke="none"/></g><g><polygon points="96.99349095708905,79.54684419823467 120.47454248517593,89.44655103965717 120.47454248517593,110.78655103965717 96.99349095708905,100.88684419823467" fill="#1d4ed8" stroke="none"/><polygon points="140.8863091685213,78.05824104853502 120.47454248517593,89.44655103965717 120.47454248517593,110.78655103965717 140.8863091685213,99.39824104853503" fill="#93c5fd" stroke="none"/><polygon points="117.40525764043443,68.15853420711252 140.8863091685213,78.05824104853502 120.47454248517593,89.44655103965717 96.99349095708905,79.54684419823467" fill="#38bdf8" stroke="none"/></g><g><polygon points="53.100672745656794,102.37544734793431 76.58172427374367,112.27515418935683 76.58172427374367,133.61515418935682 53.100672745656794,123.71544734793432" fill="#1d4ed8" stroke="none"/><polygon points="96.99349095708905,100.88684419823468 76.58172427374367,112.27515418935683 76.58172427374367,133.61515418935682 96.99349095708905,122.22684419823469" fill="#93c5fd" stroke="none"/><polygon points="73.51243942900217,90.98713735681217 96.99349095708905,100.88684419823468 76.58172427374367,112.27515418935683 53.100672745656794,102.37544734793431" fill="#38bdf8" stroke="none"/></g><g><polygon points="53.100672745656794,81.03544734793431 76.58172427374367,90.93515418935682 76.58172427374367,112.27515418935683 53.100672745656794,102.37544734793431" fill="#1d4ed8" stroke="none"/><polygon points="96.99349095708905,79.54684419823468 76.58172427374367,90.93515418935682 76.58172427374367,112.27515418935683 96.99349095708905,100.88684419823468" fill="#93c5fd" stroke="none"/><polygon points="73.51243942900217,69.64713735681217 96.99349095708905,79.54684419823468 76.58172427374367,90.93515418935682 53.100672745656794,81.03544734793431" fill="#38bdf8" stroke="none"/></g><g><polygon points="-34.68496367720773,105.35265364733358 -11.203912149120846,115.25236048875608 -11.203912149120846,136.59236048875607 -34.68496367720773,126.69265364733359" fill="#1d4ed8" stroke="none"/><polygon points="9.20785453422453,103.86405049763394 -11.203912149120846,115.25236048875608 -11.203912149120846,136.59236048875607 9.20785453422453,125.20405049763394" fill="#93c5fd" stroke="none"/><polygon points="-14.273196993862356,93.96434365621144 9.20785453422453,103.86405049763394 -11.203912149120846,115.25236048875608 -34.68496367720773,105.35265364733358" fill="#38bdf8" stroke="none"/></g><g><polygon points="-34.68496367720773,84.01265364733358 -11.203912149120846,93.91236048875608 -11.203912149120846,115.25236048875608 -34.68496367720773,105.35265364733358" fill="#1d4ed8" stroke="none"/><polygon points="9.20785453422453,82.52405049763394 -11.203912149120846,93.91236048875608 -11.203912149120846,115.25236048875608 9.20785453422453,103.86405049763394" fill="#93c5fd" stroke="none"/><polygon points="-14.273196993862356,72.62434365621144 9.20785453422453,82.52405049763394 -11.203912149120846,93.91236048875608 -34.68496367720773,84.01265364733358" fill="#38bdf8" stroke="none"/></g><g><polygon points="120.47454248517596,110.78655103965718 143.95559401326284,120.6862578810797 143.95559401326284,142.0262578810797 120.47454248517596,132.1265510396572" fill="#1d4ed8" stroke="none"/><polygon points="164.36736069660822,109.29794788995756 143.95559401326284,120.6862578810797 143.95559401326284,142.0262578810797 164.36736069660822,130.63794788995756" fill="#93c5fd" stroke="none"/><polygon points="140.88630916852134,99.39824104853504 164.36736069660822,109.29794788995756 143.95559401326284,120.6862578810797 120.47454248517596,110.78655103965718" fill="#38bdf8" stroke="none"/></g><g><polygon points="120.47454248517596,89.44655103965718 143.95559401326284,99.3462578810797 143.95559401326284,120.6862578810797 120.47454248517596,110.78655103965718" fill="#1d4ed8" stroke="none"/><polygon points="164.36736069660822,87.95794788995755 143.95559401326284,99.3462578810797 143.95559401326284,120.6862578810797 164.36736069660822,109.29794788995756" fill="#93c5fd" stroke="none"/><polygon points="140.88630916852134,78.05824104853504 164.36736069660822,87.95794788995755 143.95559401326284,99.3462578810797 120.47454248517596,89.44655103965718" fill="#38bdf8" stroke="none"/></g><g><polygon points="76.58172427374367,112.27515418935681 100.06277580183055,122.17486103077933 100.06277580183055,143.51486103077931 76.58172427374367,133.61515418935682" fill="#1d4ed8" stroke="none"/><polygon points="120.47454248517593,110.78655103965718 100.06277580183055,122.17486103077933 100.06277580183055,143.51486103077931 120.47454248517593,132.1265510396572" fill="#93c5fd" stroke="none"/><polygon points="96.99349095708905,100.88684419823467 120.47454248517593,110.78655103965718 100.06277580183055,122.17486103077933 76.58172427374367,112.27515418935681" fill="#38bdf8" stroke="none"/></g><g><polygon points="76.58172427374367,90.93515418935681 100.06277580183055,100.83486103077932 100.06277580183055,122.17486103077933 76.58172427374367,112.27515418935681" fill="#1d4ed8" stroke="none"/><polygon points="120.47454248517593,89.44655103965718 100.06277580183055,100.83486103077932 100.06277580183055,122.17486103077933 120.47454248517593,110.78655103965718" fill="#93c5fd" stroke="none"/><polygon points="96.99349095708905,79.54684419823467 120.47454248517593,89.44655103965718 100.06277580183055,100.83486103077932 76.58172427374367,90.93515418935681" fill="#38bdf8" stroke="none"/></g><g><polygon points="-11.203912149120839,115.2523604887561 12.277139378966048,125.15206733017861 12.277139378966048,146.4920673301786 -11.203912149120839,136.5923604887561" fill="#1d4ed8" stroke="none"/><polygon points="32.688906062311425,113.76375733905647 12.277139378966048,125.15206733017861 12.277139378966048,146.4920673301786 32.688906062311425,135.10375733905647" fill="#93c5fd" stroke="none"/><polygon points="9.207854534224538,103.86405049763395 32.688906062311425,113.76375733905647 12.277139378966048,125.15206733017861 -11.203912149120839,115.2523604887561" fill="#38bdf8" stroke="none"/></g><g><polygon points="-11.203912149120839,93.9123604887561 12.277139378966048,103.8120673301786 12.277139378966048,125.15206733017861 -11.203912149120839,115.2523604887561" fill="#1d4ed8" stroke="none"/><polygon points="32.688906062311425,92.42375733905646 12.277139378966048,103.8120673301786 12.277139378966048,125.15206733017861 32.688906062311425,113.76375733905647" fill="#93c5fd" stroke="none"/><polygon points="9.207854534224538,82.52405049763395 32.688906062311425,92.42375733905646 12.277139378966048,103.8120673301786 -11.203912149120839,93.9123604887561" fill="#38bdf8" stroke="none"/></g><g><polygon points="143.95559401326284,120.6862578810797 167.43664554134972,130.58596472250218 167.43664554134972,151.9259647225022 143.95559401326284,142.0262578810797" fill="#1d4ed8" stroke="none"/><polygon points="187.8484122246951,119.19765473138006 167.43664554134972,130.58596472250218 167.43664554134972,151.9259647225022 187.8484122246951,140.53765473138006" fill="#93c5fd" stroke="none"/><polygon points="164.36736069660822,109.29794788995756 187.8484122246951,119.19765473138006 167.43664554134972,130.58596472250218 143.95559401326284,120.6862578810797" fill="#38bdf8" stroke="none"/></g><g><polygon points="143.95559401326284,99.3462578810797 167.43664554134972,109.2459647225022 167.43664554134972,130.58596472250218 143.95559401326284,120.6862578810797" fill="#1d4ed8" stroke="none"/><polygon points="187.8484122246951,97.85765473138005 167.43664554134972,109.2459647225022 167.43664554134972,130.58596472250218 187.8484122246951,119.19765473138006" fill="#93c5fd" stroke="none"/><polygon points="164.36736069660822,87.95794788995755 187.8484122246951,97.85765473138005 167.43664554134972,109.2459647225022 143.95559401326284,99.3462578810797" fill="#38bdf8" stroke="none"/></g><g><polygon points="100.06277580183058,122.17486103077933 123.54382732991746,132.07456787220184 123.54382732991746,153.41456787220184 100.06277580183058,143.51486103077931" fill="#1d4ed8" stroke="none"/><polygon points="143.95559401326284,120.68625788107968 123.54382732991746,132.07456787220184 123.54382732991746,153.41456787220184 143.95559401326284,142.0262578810797" fill="#93c5fd" stroke="none"/><polygon points="120.47454248517596,110.78655103965718 143.95559401326284,120.68625788107968 123.54382732991746,132.07456787220184 100.06277580183058,122.17486103077933" fill="#38bdf8" stroke="none"/></g><g><polygon points="100.06277580183058,100.83486103077932 123.54382732991746,110.73456787220182 123.54382732991746,132.0745678722018 100.06277580183058,122.17486103077933" fill="#1d4ed8" stroke="none"/><polygon points="143.95559401326284,99.34625788107968 123.54382732991746,110.73456787220182 123.54382732991746,132.0745678722018 143.95559401326284,120.68625788107968" fill="#93c5fd" stroke="none"/><polygon points="120.47454248517596,89.44655103965718 143.95559401326284,99.34625788107968 123.54382732991746,110.73456787220182 100.06277580183058,100.83486103077932" fill="#38bdf8" stroke="none"/></g><g><polygon points="12.27713937896604,125.1520673301786 35.75819090705293,135.0517741716011 35.75819090705293,156.3917741716011 12.27713937896604,146.4920673301786" fill="#1d4ed8" stroke="none"/><polygon points="56.169957590398305,123.66346418047897 35.75819090705293,135.0517741716011 35.75819090705293,156.3917741716011 56.169957590398305,145.00346418047897" fill="#93c5fd" stroke="none"/><polygon points="32.68890606231142,113.76375733905645 56.169957590398305,123.66346418047897 35.75819090705293,135.0517741716011 12.27713937896604,125.1520673301786" fill="#38bdf8" stroke="none"/></g><g><polygon points="12.27713937896604,103.81206733017859 35.75819090705293,113.7117741716011 35.75819090705293,135.0517741716011 12.27713937896604,125.1520673301786" fill="#1d4ed8" stroke="none"/><polygon points="56.169957590398305,102.32346418047896 35.75819090705293,113.7117741716011 35.75819090705293,135.0517741716011 56.169957590398305,123.66346418047897" fill="#93c5fd" stroke="none"/><polygon points="32.68890606231142,92.42375733905645 56.169957590398305,102.32346418047896 35.75819090705293,113.7117741716011 12.27713937896604,103.81206733017859" fill="#38bdf8" stroke="none"/></g><g><polygon points="-31.615678832466216,126.64067047987824 -8.134627304379329,136.54037732130075 -8.134627304379329,157.88037732130076 -31.615678832466216,147.98067047987823" fill="#1d4ed8" stroke="none"/><polygon points="12.277139378966048,125.1520673301786 -8.134627304379329,136.54037732130075 -8.134627304379329,157.88037732130076 12.277139378966048,146.4920673301786" fill="#93c5fd" stroke="none"/><polygon points="-11.203912149120839,115.2523604887561 12.277139378966048,125.1520673301786 -8.134627304379329,136.54037732130075 -31.615678832466216,126.64067047987824" fill="#38bdf8" stroke="none"/></g><g><polygon points="-31.615678832466216,105.30067047987824 -8.134627304379329,115.20037732130073 -8.134627304379329,136.54037732130072 -31.615678832466216,126.64067047987824" fill="#1d4ed8" stroke="none"/><polygon points="12.277139378966048,103.81206733017859 -8.134627304379329,115.20037732130073 -8.134627304379329,136.54037732130072 12.277139378966048,125.1520673301786" fill="#93c5fd" stroke="none"/><polygon points="-11.203912149120839,93.9123604887561 12.277139378966048,103.81206733017859 -8.134627304379329,115.20037732130073 -31.615678832466216,105.30067047987824" fill="#38bdf8" stroke="none"/></g><g><polygon points="123.54382732991746,132.07456787220184 147.02487885800434,141.97427471362437 147.02487885800434,163.31427471362437 123.54382732991746,153.41456787220184" fill="#1d4ed8" stroke="none"/><polygon points="167.43664554134972,130.5859647225022 147.02487885800434,141.97427471362437 147.02487885800434,163.31427471362437 167.43664554134972,151.92596472250221" fill="#93c5fd" stroke="none"/><polygon points="143.95559401326284,120.6862578810797 167.43664554134972,130.5859647225022 147.02487885800434,141.97427471362437 123.54382732991746,132.07456787220184" fill="#38bdf8" stroke="none"/></g><g><polygon points="123.54382732991746,110.73456787220184 147.02487885800434,120.63427471362435 147.02487885800434,141.97427471362434 123.54382732991746,132.07456787220184" fill="#1d4ed8" stroke="none"/><polygon points="167.43664554134972,109.24596472250221 147.02487885800434,120.63427471362435 147.02487885800434,141.97427471362434 167.43664554134972,130.5859647225022" fill="#93c5fd" stroke="none"/><polygon points="143.95559401326284,99.3462578810797 167.43664554134972,109.24596472250221 147.02487885800434,120.63427471362435 123.54382732991746,110.73456787220184" fill="#38bdf8" stroke="none"/></g><g><polygon points="-8.134627304379336,136.54037732130075 15.346424223707551,146.44008416272322 15.346424223707551,167.78008416272323 -8.134627304379336,157.88037732130076" fill="#1d4ed8" stroke="none"/><polygon points="35.75819090705293,135.0517741716011 15.346424223707551,146.44008416272322 15.346424223707551,167.78008416272323 35.75819090705293,156.3917741716011" fill="#93c5fd" stroke="none"/><polygon points="12.27713937896604,125.1520673301786 35.75819090705293,135.0517741716011 15.346424223707551,146.44008416272322 -8.134627304379336,136.54037732130075" fill="#38bdf8" stroke="none"/></g><g><polygon points="-8.134627304379336,115.20037732130073 15.346424223707551,125.10008416272323 15.346424223707551,146.44008416272322 -8.134627304379336,136.54037732130072" fill="#1d4ed8" stroke="none"/><polygon points="35.75819090705293,113.71177417160109 15.346424223707551,125.10008416272323 15.346424223707551,146.44008416272322 35.75819090705293,135.0517741716011" fill="#93c5fd" stroke="none"/><polygon points="12.27713937896604,103.81206733017859 35.75819090705293,113.71177417160109 15.346424223707551,125.10008416272323 -8.134627304379336,115.20037732130073" fill="#38bdf8" stroke="none"/></g><g><polygon points="-139.81308193867613,141.00618677039967 -116.33203041058925,150.90589361182214 -116.33203041058925,172.24589361182214 -139.81308193867613,162.34618677039967" fill="#1d4ed8" stroke="none"/><polygon points="-95.92026372724388,139.5175836207 -116.33203041058925,150.90589361182214 -116.33203041058925,172.24589361182214 -95.92026372724388,160.8575836207" fill="#93c5fd" stroke="none"/><polygon points="-119.40131525533076,129.6178767792775 -95.92026372724388,139.5175836207 -116.33203041058925,150.90589361182214 -139.81308193867613,141.00618677039967" fill="#38bdf8" stroke="none"/></g><g><polygon points="-139.81308193867613,119.66618677039965 -116.33203041058925,129.56589361182216 -116.33203041058925,150.90589361182217 -139.81308193867613,141.00618677039964" fill="#1d4ed8" stroke="none"/><polygon points="-95.92026372724388,118.1775836207 -116.33203041058925,129.56589361182216 -116.33203041058925,150.90589361182217 -95.92026372724388,139.5175836207" fill="#93c5fd" stroke="none"/><polygon points="-119.40131525533076,108.2778767792775 -95.92026372724388,118.1775836207 -116.33203041058925,129.56589361182216 -139.81308193867613,119.66618677039965" fill="#38bdf8" stroke="none"/></g><g><polygon points="-183.7059001501084,142.49478992009927 -160.2248486220215,152.3944967615218 -160.2248486220215,173.7344967615218 -183.7059001501084,163.83478992009927" fill="#1d4ed8" stroke="none"/><polygon points="-139.81308193867613,141.00618677039964 -160.2248486220215,152.3944967615218 -160.2248486220215,173.7344967615218 -139.81308193867613,162.34618677039964" fill="#93c5fd" stroke="none"/><polygon points="-163.29413346676301,131.10647992897714 -139.81308193867613,141.00618677039964 -160.2248486220215,152.3944967615218 -183.7059001501084,142.49478992009927" fill="#38bdf8" stroke="none"/></g><g><polygon points="-183.7059001501084,121.15478992009928 -160.2248486220215,131.05449676152176 -160.2248486220215,152.39449676152176 -183.7059001501084,142.49478992009927" fill="#1d4ed8" stroke="none"/><polygon points="-139.81308193867613,119.66618677039963 -160.2248486220215,131.05449676152176 -160.2248486220215,152.39449676152176 -139.81308193867613,141.00618677039964" fill="#93c5fd" stroke="none"/><polygon points="-163.29413346676301,109.76647992897713 -139.81308193867613,119.66618677039963 -160.2248486220215,131.05449676152176 -183.7059001501084,121.15478992009928" fill="#38bdf8" stroke="none"/></g><g><polygon points="15.346424223707544,146.44008416272322 38.82747575179443,156.33979100414575 38.82747575179443,177.67979100414576 15.346424223707544,167.78008416272323" fill="#1d4ed8" stroke="none"/><polygon points="59.23924243513981,144.9514810130236 38.82747575179443,156.33979100414575 38.82747575179443,177.67979100414576 59.23924243513981,166.2914810130236" fill="#93c5fd" stroke="none"/><polygon points="35.75819090705292,135.0517741716011 59.23924243513981,144.9514810130236 38.82747575179443,156.33979100414575 15.346424223707544,146.44008416272322" fill="#38bdf8" stroke="none"/></g><g><polygon points="15.346424223707544,125.10008416272323 38.82747575179443,134.99979100414572 38.82747575179443,156.33979100414572 15.346424223707544,146.44008416272322" fill="#1d4ed8" stroke="none"/><polygon points="59.23924243513981,123.61148101302359 38.82747575179443,134.99979100414572 38.82747575179443,156.33979100414572 59.23924243513981,144.9514810130236" fill="#93c5fd" stroke="none"/><polygon points="35.75819090705292,113.71177417160109 59.23924243513981,123.61148101302359 38.82747575179443,134.99979100414572 15.346424223707544,125.10008416272323" fill="#38bdf8" stroke="none"/></g><g><polygon points="-72.43921219915697,149.41729046212254 -48.95816067107008,159.316997303545 -48.95816067107008,180.656997303545 -72.43921219915697,170.75729046212254" fill="#1d4ed8" stroke="none"/><polygon points="-28.546393987724706,147.92868731242288 -48.95816067107008,159.316997303545 -48.95816067107008,180.656997303545 -28.546393987724706,169.26868731242288" fill="#93c5fd" stroke="none"/><polygon points="-52.02744551581159,138.02898047100038 -28.546393987724706,147.92868731242288 -48.95816067107008,159.316997303545 -72.43921219915697,149.41729046212254" fill="#38bdf8" stroke="none"/></g><g><polygon points="-72.43921219915697,128.0772904621225 -48.95816067107008,137.97699730354503 -48.95816067107008,159.31699730354504 -72.43921219915697,149.4172904621225" fill="#1d4ed8" stroke="none"/><polygon points="-28.546393987724706,126.58868731242288 -48.95816067107008,137.97699730354503 -48.95816067107008,159.31699730354504 -28.546393987724706,147.92868731242288" fill="#93c5fd" stroke="none"/><polygon points="-52.02744551581159,116.68898047100038 -28.546393987724706,126.58868731242288 -48.95816067107008,137.97699730354503 -72.43921219915697,128.0772904621225" fill="#38bdf8" stroke="none"/></g><g><polygon points="-116.33203041058924,150.90589361182214 -92.85097888250235,160.80560045324467 -92.85097888250235,182.14560045324467 -116.33203041058924,172.24589361182214" fill="#1d4ed8" stroke="none"/><polygon points="-72.43921219915697,149.4172904621225 -92.85097888250235,160.80560045324467 -92.85097888250235,182.14560045324467 -72.43921219915697,170.7572904621225" fill="#93c5fd" stroke="none"/><polygon points="-95.92026372724386,139.5175836207 -72.43921219915697,149.4172904621225 -92.85097888250235,160.80560045324467 -116.33203041058924,150.90589361182214" fill="#38bdf8" stroke="none"/></g><g><polygon points="-116.33203041058924,129.56589361182216 -92.85097888250235,139.46560045324463 -92.85097888250235,160.80560045324464 -116.33203041058924,150.90589361182217" fill="#1d4ed8" stroke="none"/><polygon points="-72.43921219915697,128.0772904621225 -92.85097888250235,139.46560045324463 -92.85097888250235,160.80560045324464 -72.43921219915697,149.4172904621225" fill="#93c5fd" stroke="none"/><polygon points="-95.92026372724386,118.1775836207 -72.43921219915697,128.0772904621225 -92.85097888250235,139.46560045324463 -116.33203041058924,129.56589361182216" fill="#38bdf8" stroke="none"/></g><g><polygon points="-160.2248486220215,152.3944967615218 -136.74379709393463,162.29420360294426 -136.74379709393463,183.63420360294427 -160.2248486220215,173.7344967615218" fill="#1d4ed8" stroke="none"/><polygon points="-116.33203041058925,150.90589361182214 -136.74379709393463,162.29420360294426 -136.74379709393463,183.63420360294427 -116.33203041058925,172.24589361182214" fill="#93c5fd" stroke="none"/><polygon points="-139.81308193867613,141.00618677039964 -116.33203041058925,150.90589361182214 -136.74379709393463,162.29420360294426 -160.2248486220215,152.3944967615218" fill="#38bdf8" stroke="none"/></g><g><polygon points="-160.2248486220215,131.05449676152176 -136.74379709393463,140.9542036029443 -136.74379709393463,162.2942036029443 -160.2248486220215,152.39449676152176" fill="#1d4ed8" stroke="none"/><polygon points="-116.33203041058925,129.56589361182213 -136.74379709393463,140.9542036029443 -136.74379709393463,162.2942036029443 -116.33203041058925,150.90589361182214" fill="#93c5fd" stroke="none"/><polygon points="-139.81308193867613,119.66618677039963 -116.33203041058925,129.56589361182213 -136.74379709393463,140.9542036029443 -160.2248486220215,131.05449676152176" fill="#38bdf8" stroke="none"/></g><g><polygon points="-204.11766683345377,153.8830999112214 -180.6366153053669,163.78280675264392 -180.6366153053669,185.12280675264392 -204.11766683345377,175.2230999112214" fill="#1d4ed8" stroke="none"/><polygon points="-160.2248486220215,152.39449676152176 -180.6366153053669,163.78280675264392 -180.6366153053669,185.12280675264392 -160.2248486220215,173.73449676152177" fill="#93c5fd" stroke="none"/><polygon points="-183.7059001501084,142.49478992009927 -160.2248486220215,152.39449676152176 -180.6366153053669,163.78280675264392 -204.11766683345377,153.8830999112214" fill="#38bdf8" stroke="none"/></g><g><polygon points="-204.11766683345377,132.54309991122142 -180.6366153053669,142.4428067526439 -180.6366153053669,163.7828067526439 -204.11766683345377,153.88309991122142" fill="#1d4ed8" stroke="none"/><polygon points="-160.2248486220215,131.05449676152176 -180.6366153053669,142.4428067526439 -180.6366153053669,163.7828067526439 -160.2248486220215,152.39449676152176" fill="#93c5fd" stroke="none"/><polygon points="-183.7059001501084,121.15478992009926 -160.2248486220215,131.05449676152176 -180.6366153053669,142.4428067526439 -204.11766683345377,132.54309991122142" fill="#38bdf8" stroke="none"/></g><g><polygon points="-5.065342459637833,157.82839415384535 18.415709068449054,167.72810099526788 18.415709068449054,189.06810099526788 -5.065342459637833,179.16839415384536" fill="#1d4ed8" stroke="none"/><polygon points="38.82747575179443,156.33979100414572 18.415709068449054,167.72810099526788 18.415709068449054,189.06810099526788 38.82747575179443,177.67979100414573" fill="#93c5fd" stroke="none"/><polygon points="15.346424223707544,146.44008416272322 38.82747575179443,156.33979100414572 18.415709068449054,167.72810099526788 -5.065342459637833,157.82839415384535" fill="#38bdf8" stroke="none"/></g><g><polygon points="-5.065342459637833,136.48839415384538 18.415709068449054,146.38810099526785 18.415709068449054,167.72810099526785 -5.065342459637833,157.82839415384538" fill="#1d4ed8" stroke="none"/><polygon points="38.82747575179443,134.99979100414572 18.415709068449054,146.38810099526785 18.415709068449054,167.72810099526785 38.82747575179443,156.33979100414572" fill="#93c5fd" stroke="none"/><polygon points="15.346424223707544,125.10008416272322 38.82747575179443,134.99979100414572 18.415709068449054,146.38810099526785 -5.065342459637833,136.48839415384538" fill="#38bdf8" stroke="none"/></g><g><polygon points="-48.95816067107009,159.316997303545 -25.477109142983203,169.21670414496754 -25.477109142983203,190.55670414496754 -48.95816067107009,180.656997303545" fill="#1d4ed8" stroke="none"/><polygon points="-5.065342459637826,157.82839415384538 -25.477109142983203,169.21670414496754 -25.477109142983203,190.55670414496754 -5.065342459637826,179.16839415384538" fill="#93c5fd" stroke="none"/><polygon points="-28.546393987724713,147.92868731242288 -5.065342459637826,157.82839415384538 -25.477109142983203,169.21670414496754 -48.95816067107009,159.316997303545" fill="#38bdf8" stroke="none"/></g><g><polygon points="-48.95816067107009,137.97699730354503 -25.477109142983203,147.8767041449675 -25.477109142983203,169.2167041449675 -48.95816067107009,159.31699730354504" fill="#1d4ed8" stroke="none"/><polygon points="-5.065342459637826,136.48839415384538 -25.477109142983203,147.8767041449675 -25.477109142983203,169.2167041449675 -5.065342459637826,157.82839415384538" fill="#93c5fd" stroke="none"/><polygon points="-28.546393987724713,126.58868731242288 -5.065342459637826,136.48839415384538 -25.477109142983203,147.8767041449675 -48.95816067107009,137.97699730354503" fill="#38bdf8" stroke="none"/></g><g><polygon points="-92.85097888250235,160.80560045324467 -69.36992735441547,170.7053072946672 -69.36992735441547,192.0453072946672 -92.85097888250235,182.14560045324467" fill="#1d4ed8" stroke="none"/><polygon points="-48.95816067107008,159.31699730354504 -69.36992735441547,170.7053072946672 -69.36992735441547,192.0453072946672 -48.95816067107008,180.65699730354504" fill="#93c5fd" stroke="none"/><polygon points="-72.43921219915697,149.41729046212254 -48.95816067107008,159.31699730354504 -69.36992735441547,170.7053072946672 -92.85097888250235,160.80560045324467" fill="#38bdf8" stroke="none"/></g><g><polygon points="-92.85097888250235,139.4656004532447 -69.36992735441547,149.36530729466716 -69.36992735441547,170.70530729466716 -92.85097888250235,160.8056004532447" fill="#1d4ed8" stroke="none"/><polygon points="-48.95816067107008,137.97699730354503 -69.36992735441547,149.36530729466716 -69.36992735441547,170.70530729466716 -48.95816067107008,159.31699730354504" fill="#93c5fd" stroke="none"/><polygon points="-72.43921219915697,128.07729046212253 -48.95816067107008,137.97699730354503 -69.36992735441547,149.36530729466716 -92.85097888250235,139.4656004532447" fill="#38bdf8" stroke="none"/></g><g><polygon points="-136.74379709393463,162.29420360294426 -113.26274556584772,172.1939104443668 -113.26274556584772,193.5339104443668 -136.74379709393463,183.63420360294427" fill="#1d4ed8" stroke="none"/><polygon points="-92.85097888250235,160.80560045324464 -113.26274556584772,172.1939104443668 -113.26274556584772,193.5339104443668 -92.85097888250235,182.14560045324464" fill="#93c5fd" stroke="none"/><polygon points="-116.33203041058924,150.90589361182214 -92.85097888250235,160.80560045324464 -113.26274556584772,172.1939104443668 -136.74379709393463,162.29420360294426" fill="#38bdf8" stroke="none"/></g><g><polygon points="-136.74379709393463,140.9542036029443 -113.26274556584772,150.85391044436676 -113.26274556584772,172.19391044436676 -136.74379709393463,162.2942036029443" fill="#1d4ed8" stroke="none"/><polygon points="-92.85097888250235,139.46560045324463 -113.26274556584772,150.85391044436676 -113.26274556584772,172.19391044436676 -92.85097888250235,160.80560045324464" fill="#93c5fd" stroke="none"/><polygon points="-116.33203041058924,129.56589361182213 -92.85097888250235,139.46560045324463 -113.26274556584772,150.85391044436676 -136.74379709393463,140.9542036029443" fill="#38bdf8" stroke="none"/></g><g><polygon points="-180.6366153053669,163.78280675264392 -157.15556377728,173.68251359406645 -157.15556377728,195.02251359406645 -180.6366153053669,185.12280675264392" fill="#1d4ed8" stroke="none"/><polygon points="-136.74379709393463,162.2942036029443 -157.15556377728,173.68251359406645 -157.15556377728,195.02251359406645 -136.74379709393463,183.6342036029443" fill="#93c5fd" stroke="none"/><polygon points="-160.2248486220215,152.3944967615218 -136.74379709393463,162.2942036029443 -157.15556377728,173.68251359406645 -180.6366153053669,163.78280675264392" fill="#38bdf8" stroke="none"/></g><g><polygon points="-180.6366153053669,142.44280675264395 -157.15556377728,152.34251359406642 -157.15556377728,173.68251359406642 -180.6366153053669,163.78280675264395" fill="#1d4ed8" stroke="none"/><polygon points="-136.74379709393463,140.9542036029443 -157.15556377728,152.34251359406642 -157.15556377728,173.68251359406642 -136.74379709393463,162.2942036029443" fill="#93c5fd" stroke="none"/><polygon points="-160.2248486220215,131.0544967615218 -136.74379709393463,140.9542036029443 -157.15556377728,152.34251359406642 -180.6366153053669,142.44280675264395" fill="#38bdf8" stroke="none"/></g><g><polygon points="-224.52943351679914,165.27140990234358 -201.04838198871226,175.17111674376605 -201.04838198871226,196.51111674376605 -224.52943351679914,186.61140990234358" fill="#1d4ed8" stroke="none"/><polygon points="-180.6366153053669,163.78280675264392 -201.04838198871226,175.17111674376605 -201.04838198871226,196.51111674376605 -180.6366153053669,185.12280675264392" fill="#93c5fd" stroke="none"/><polygon points="-204.11766683345377,153.88309991122142 -180.6366153053669,163.78280675264392 -201.04838198871226,175.17111674376605 -224.52943351679914,165.27140990234358" fill="#38bdf8" stroke="none"/></g><g><polygon points="-224.52943351679914,143.93140990234355 -201.04838198871226,153.83111674376607 -201.04838198871226,175.17111674376608 -224.52943351679914,165.27140990234355" fill="#1d4ed8" stroke="none"/><polygon points="-180.6366153053669,142.44280675264392 -201.04838198871226,153.83111674376607 -201.04838198871226,175.17111674376608 -180.6366153053669,163.78280675264392" fill="#93c5fd" stroke="none"/><polygon points="-204.11766683345377,132.54309991122142 -180.6366153053669,142.44280675264392 -201.04838198871226,153.83111674376607 -224.52943351679914,143.93140990234355" fill="#38bdf8" stroke="none"/></g><g><polygon points="-25.47710914298321,169.21670414496754 -1.9960576148963227,179.11641098639 -1.9960576148963227,200.45641098639 -25.47710914298321,190.55670414496754" fill="#1d4ed8" stroke="none"/><polygon points="18.415709068449054,167.72810099526788 -1.9960576148963227,179.11641098639 -1.9960576148963227,200.45641098639 18.415709068449054,189.06810099526788" fill="#93c5fd" stroke="none"/><polygon points="-5.065342459637833,157.82839415384538 18.415709068449054,167.72810099526788 -1.9960576148963227,179.11641098639 -25.47710914298321,169.21670414496754" fill="#38bdf8" stroke="none"/></g><g><polygon points="-25.47710914298321,147.8767041449675 -1.9960576148963227,157.77641098639003 -1.9960576148963227,179.11641098639004 -25.47710914298321,169.2167041449675" fill="#1d4ed8" stroke="none"/><polygon points="18.415709068449054,146.38810099526788 -1.9960576148963227,157.77641098639003 -1.9960576148963227,179.11641098639004 18.415709068449054,167.72810099526788" fill="#93c5fd" stroke="none"/><polygon points="-5.065342459637833,136.48839415384538 18.415709068449054,146.38810099526788 -1.9960576148963227,157.77641098639003 -25.47710914298321,147.8767041449675" fill="#38bdf8" stroke="none"/></g><g><polygon points="-69.36992735441547,170.70530729466714 -45.88887582632858,180.60501413608966 -45.88887582632858,201.94501413608967 -69.36992735441547,192.04530729466714" fill="#1d4ed8" stroke="none"/><polygon points="-25.477109142983203,169.2167041449675 -45.88887582632858,180.60501413608966 -45.88887582632858,201.94501413608967 -25.477109142983203,190.5567041449675" fill="#93c5fd" stroke="none"/><polygon points="-48.95816067107009,159.316997303545 -25.477109142983203,169.2167041449675 -45.88887582632858,180.60501413608966 -69.36992735441547,170.70530729466714" fill="#38bdf8" stroke="none"/></g><g><polygon points="-69.36992735441547,149.36530729466716 -45.88887582632858,159.26501413608963 -45.88887582632858,180.60501413608964 -69.36992735441547,170.70530729466716" fill="#1d4ed8" stroke="none"/><polygon points="-25.477109142983203,147.8767041449675 -45.88887582632858,159.26501413608963 -45.88887582632858,180.60501413608964 -25.477109142983203,169.2167041449675" fill="#93c5fd" stroke="none"/><polygon points="-48.95816067107009,137.976997303545 -25.477109142983203,147.8767041449675 -45.88887582632858,159.26501413608963 -69.36992735441547,149.36530729466716" fill="#38bdf8" stroke="none"/></g><g><polygon points="-157.15556377728,173.68251359406645 -133.67451224919313,183.58222043548892 -133.67451224919313,204.92222043548892 -157.15556377728,195.02251359406645" fill="#1d4ed8" stroke="none"/><polygon points="-113.26274556584775,172.1939104443668 -133.67451224919313,183.58222043548892 -133.67451224919313,204.92222043548892 -113.26274556584775,193.5339104443668" fill="#93c5fd" stroke="none"/><polygon points="-136.74379709393463,162.2942036029443 -113.26274556584775,172.1939104443668 -133.67451224919313,183.58222043548892 -157.15556377728,173.68251359406645" fill="#38bdf8" stroke="none"/></g><g><polygon points="-157.15556377728,152.34251359406642 -133.67451224919313,162.24222043548895 -133.67451224919313,183.58222043548895 -157.15556377728,173.68251359406642" fill="#1d4ed8" stroke="none"/><polygon points="-113.26274556584775,150.8539104443668 -133.67451224919313,162.24222043548895 -133.67451224919313,183.58222043548895 -113.26274556584775,172.1939104443668" fill="#93c5fd" stroke="none"/><polygon points="-136.74379709393463,140.9542036029443 -113.26274556584775,150.8539104443668 -133.67451224919313,162.24222043548895 -157.15556377728,152.34251359406642" fill="#38bdf8" stroke="none"/></g><g><polygon points="-201.04838198871226,175.17111674376605 -177.56733046062539,185.07082358518858 -177.56733046062539,206.41082358518858 -201.04838198871226,196.51111674376605" fill="#1d4ed8" stroke="none"/><polygon points="-157.15556377728,173.68251359406642 -177.56733046062539,185.07082358518858 -177.56733046062539,206.41082358518858 -157.15556377728,195.02251359406642" fill="#93c5fd" stroke="none"/><polygon points="-180.6366153053669,163.78280675264392 -157.15556377728,173.68251359406642 -177.56733046062539,185.07082358518858 -201.04838198871226,175.17111674376605" fill="#38bdf8" stroke="none"/></g><g><polygon points="-201.04838198871226,153.83111674376607 -177.56733046062539,163.73082358518855 -177.56733046062539,185.07082358518855 -201.04838198871226,175.17111674376608" fill="#1d4ed8" stroke="none"/><polygon points="-157.15556377728,152.34251359406642 -177.56733046062539,163.73082358518855 -177.56733046062539,185.07082358518855 -157.15556377728,173.68251359406642" fill="#93c5fd" stroke="none"/><polygon points="-180.6366153053669,142.44280675264392 -157.15556377728,152.34251359406642 -177.56733046062539,163.73082358518855 -201.04838198871226,153.83111674376607" fill="#38bdf8" stroke="none"/></g><g><polygon points="-133.6745122491931,183.58222043548892 -110.19346072110622,193.48192727691145 -110.19346072110622,214.82192727691145 -133.6745122491931,204.92222043548892" fill="#1d4ed8" stroke="none"/><polygon points="-89.78169403776084,182.0936172857893 -110.19346072110622,193.48192727691145 -110.19346072110622,214.82192727691145 -89.78169403776084,203.4336172857893" fill="#93c5fd" stroke="none"/><polygon points="-113.26274556584772,172.1939104443668 -89.78169403776084,182.0936172857893 -110.19346072110622,193.48192727691145 -133.6745122491931,183.58222043548892" fill="#38bdf8" stroke="none"/></g><g><polygon points="-133.6745122491931,162.24222043548895 -110.19346072110622,172.14192727691142 -110.19346072110622,193.48192727691142 -133.6745122491931,183.58222043548895" fill="#1d4ed8" stroke="none"/><polygon points="-89.78169403776084,160.7536172857893 -110.19346072110622,172.14192727691142 -110.19346072110622,193.48192727691142 -89.78169403776084,182.0936172857893" fill="#93c5fd" stroke="none"/><polygon points="-113.26274556584772,150.8539104443668 -89.78169403776084,160.7536172857893 -110.19346072110622,172.14192727691142 -133.6745122491931,162.24222043548895" fill="#38bdf8" stroke="none"/></g><g><polygon points="-177.56733046062539,185.07082358518858 -154.0862789325385,194.9705304266111 -154.0862789325385,216.3105304266111 -177.56733046062539,206.41082358518858" fill="#1d4ed8" stroke="none"/><polygon points="-133.67451224919313,183.58222043548895 -154.0862789325385,194.9705304266111 -154.0862789325385,216.3105304266111 -133.67451224919313,204.92222043548895" fill="#93c5fd" stroke="none"/><polygon points="-157.15556377728,173.68251359406645 -133.67451224919313,183.58222043548895 -154.0862789325385,194.9705304266111 -177.56733046062539,185.07082358518858" fill="#38bdf8" stroke="none"/></g><g><polygon points="-177.56733046062539,163.7308235851886 -154.0862789325385,173.63053042661107 -154.0862789325385,194.97053042661108 -177.56733046062539,185.0708235851886" fill="#1d4ed8" stroke="none"/><polygon points="-133.67451224919313,162.24222043548895 -154.0862789325385,173.63053042661107 -154.0862789325385,194.97053042661108 -133.67451224919313,183.58222043548895" fill="#93c5fd" stroke="none"/><polygon points="-157.15556377728,152.34251359406645 -133.67451224919313,162.24222043548895 -154.0862789325385,173.63053042661107 -177.56733046062539,163.7308235851886" fill="#38bdf8" stroke="none"/></g><g><polygon points="-110.19346072110622,193.48192727691145 -86.71240919301934,203.38163411833398 -86.71240919301934,224.72163411833398 -110.19346072110622,214.82192727691145" fill="#1d4ed8" stroke="none"/><polygon points="-66.30064250967396,191.99332412721182 -86.71240919301934,203.38163411833398 -86.71240919301934,224.72163411833398 -66.30064250967396,213.33332412721182" fill="#93c5fd" stroke="none"/><polygon points="-89.78169403776084,182.09361728578932 -66.30064250967396,191.99332412721182 -86.71240919301934,203.38163411833398 -110.19346072110622,193.48192727691145" fill="#38bdf8" stroke="none"/></g><g><polygon points="-110.19346072110622,172.14192727691147 -86.71240919301934,182.04163411833395 -86.71240919301934,203.38163411833395 -110.19346072110622,193.48192727691148" fill="#1d4ed8" stroke="none"/><polygon points="-66.30064250967396,170.65332412721182 -86.71240919301934,182.04163411833395 -86.71240919301934,203.38163411833395 -66.30064250967396,191.99332412721182" fill="#93c5fd" stroke="none"/><polygon points="-89.78169403776084,160.75361728578932 -66.30064250967396,170.65332412721182 -86.71240919301934,182.04163411833395 -110.19346072110622,172.14192727691147" fill="#38bdf8" stroke="none"/></g><g><polygon points="-154.08627893253848,194.9705304266111 -130.6052274044516,204.87023726803358 -130.6052274044516,226.21023726803358 -154.08627893253848,216.3105304266111" fill="#1d4ed8" stroke="none"/><polygon points="-110.19346072110622,193.48192727691145 -130.6052274044516,204.87023726803358 -130.6052274044516,226.21023726803358 -110.19346072110622,214.82192727691145" fill="#93c5fd" stroke="none"/><polygon points="-133.6745122491931,183.58222043548895 -110.19346072110622,193.48192727691145 -130.6052274044516,204.87023726803358 -154.08627893253848,194.9705304266111" fill="#38bdf8" stroke="none"/></g><g><polygon points="-154.08627893253848,173.63053042661107 -130.6052274044516,183.5302372680336 -130.6052274044516,204.8702372680336 -154.08627893253848,194.97053042661108" fill="#1d4ed8" stroke="none"/><polygon points="-110.19346072110622,172.14192727691145 -130.6052274044516,183.5302372680336 -130.6052274044516,204.8702372680336 -110.19346072110622,193.48192727691145" fill="#93c5fd" stroke="none"/><polygon points="-133.6745122491931,162.24222043548895 -110.19346072110622,172.14192727691145 -130.6052274044516,183.5302372680336 -154.08627893253848,173.63053042661107" fill="#38bdf8" stroke="none"/></g><g><polygon points="-86.71240919301934,203.38163411833392 -63.23135766493245,213.28134095975645 -63.23135766493245,234.62134095975645 -86.71240919301934,224.72163411833392" fill="#1d4ed8" stroke="none"/><polygon points="-42.819590981587076,201.8930309686343 -63.23135766493245,213.28134095975645 -63.23135766493245,234.62134095975645 -42.819590981587076,223.2330309686343" fill="#93c5fd" stroke="none"/><polygon points="-66.30064250967396,191.9933241272118 -42.819590981587076,201.8930309686343 -63.23135766493245,213.28134095975645 -86.71240919301934,203.38163411833392" fill="#38bdf8" stroke="none"/></g><g><polygon points="-86.71240919301934,182.04163411833395 -63.23135766493245,191.94134095975642 -63.23135766493245,213.28134095975642 -86.71240919301934,203.38163411833395" fill="#1d4ed8" stroke="none"/><polygon points="-42.819590981587076,180.5530309686343 -63.23135766493245,191.94134095975642 -63.23135766493245,213.28134095975642 -42.819590981587076,201.8930309686343" fill="#93c5fd" stroke="none"/><polygon points="-66.30064250967396,170.6533241272118 -42.819590981587076,180.5530309686343 -63.23135766493245,191.94134095975642 -86.71240919301934,182.04163411833395" fill="#38bdf8" stroke="none"/></g><g><polygon points="-130.6052274044516,204.87023726803358 -107.12417587636472,214.7699441094561 -107.12417587636472,236.1099441094561 -130.6052274044516,226.21023726803358" fill="#1d4ed8" stroke="none"/><polygon points="-86.71240919301934,203.38163411833395 -107.12417587636472,214.7699441094561 -107.12417587636472,236.1099441094561 -86.71240919301934,224.72163411833395" fill="#93c5fd" stroke="none"/><polygon points="-110.19346072110622,193.48192727691145 -86.71240919301934,203.38163411833395 -107.12417587636472,214.7699441094561 -130.6052274044516,204.87023726803358" fill="#38bdf8" stroke="none"/></g><g><polygon points="-130.6052274044516,183.5302372680336 -107.12417587636472,193.42994410945607 -107.12417587636472,214.76994410945608 -130.6052274044516,204.8702372680336" fill="#1d4ed8" stroke="none"/><polygon points="-86.71240919301934,182.04163411833395 -107.12417587636472,193.42994410945607 -107.12417587636472,214.76994410945608 -86.71240919301934,203.38163411833395" fill="#93c5fd" stroke="none"/><polygon points="-110.19346072110622,172.14192727691145 -86.71240919301934,182.04163411833395 -107.12417587636472,193.42994410945607 -130.6052274044516,183.5302372680336" fill="#38bdf8" stroke="none"/></g><g><polygon points="-63.23135766493243,213.28134095975645 -39.750306136845545,223.18104780117898 -39.750306136845545,244.52104780117898 -63.23135766493243,234.62134095975645" fill="#1d4ed8" stroke="none"/><polygon points="-19.338539453500168,211.79273781005682 -39.750306136845545,223.18104780117898 -39.750306136845545,244.52104780117898 -19.338539453500168,233.13273781005682" fill="#93c5fd" stroke="none"/><polygon points="-42.819590981587055,201.89303096863432 -19.338539453500168,211.79273781005682 -39.750306136845545,223.18104780117898 -63.23135766493243,213.28134095975645" fill="#38bdf8" stroke="none"/></g><g><polygon points="-63.23135766493243,191.94134095975647 -39.750306136845545,201.84104780117895 -39.750306136845545,223.18104780117895 -63.23135766493243,213.28134095975648" fill="#1d4ed8" stroke="none"/><polygon points="-19.338539453500168,190.45273781005682 -39.750306136845545,201.84104780117895 -39.750306136845545,223.18104780117895 -19.338539453500168,211.79273781005682" fill="#93c5fd" stroke="none"/><polygon points="-42.819590981587055,180.55303096863432 -19.338539453500168,190.45273781005682 -39.750306136845545,201.84104780117895 -63.23135766493243,191.94134095975647" fill="#38bdf8" stroke="none"/></g><g><polygon points="-107.12417587636472,214.7699441094561 -83.64312434827784,224.66965095087858 -83.64312434827784,246.00965095087858 -107.12417587636472,236.1099441094561" fill="#1d4ed8" stroke="none"/><polygon points="-63.23135766493245,213.28134095975645 -83.64312434827784,224.66965095087858 -83.64312434827784,246.00965095087858 -63.23135766493245,234.62134095975645" fill="#93c5fd" stroke="none"/><polygon points="-86.71240919301934,203.38163411833395 -63.23135766493245,213.28134095975645 -83.64312434827784,224.66965095087858 -107.12417587636472,214.7699441094561" fill="#38bdf8" stroke="none"/></g><g><polygon points="-107.12417587636472,193.42994410945607 -83.64312434827784,203.3296509508786 -83.64312434827784,224.6696509508786 -107.12417587636472,214.76994410945608" fill="#1d4ed8" stroke="none"/><polygon points="-63.23135766493245,191.94134095975645 -83.64312434827784,203.3296509508786 -83.64312434827784,224.6696509508786 -63.23135766493245,213.28134095975645" fill="#93c5fd" stroke="none"/><polygon points="-86.71240919301934,182.04163411833395 -63.23135766493245,191.94134095975645 -83.64312434827784,203.3296509508786 -107.12417587636472,193.42994410945607" fill="#38bdf8" stroke="none"/></g><g><polygon points="-39.75030613684555,223.18104780117898 -16.269254608758665,233.0807546426015 -16.269254608758665,254.4207546426015 -39.75030613684555,244.52104780117898" fill="#1d4ed8" stroke="none"/><polygon points="4.142512074586712,221.69244465147935 -16.269254608758665,233.0807546426015 -16.269254608758665,254.4207546426015 4.142512074586712,243.03244465147935" fill="#93c5fd" stroke="none"/><polygon points="-19.338539453500175,211.79273781005685 4.142512074586712,221.69244465147935 -16.269254608758665,233.0807546426015 -39.75030613684555,223.18104780117898" fill="#38bdf8" stroke="none"/></g><g><polygon points="-39.75030613684555,201.841047801179 -16.269254608758665,211.74075464260147 -16.269254608758665,233.08075464260148 -39.75030613684555,223.181047801179" fill="#1d4ed8" stroke="none"/><polygon points="4.142512074586712,200.35244465147935 -16.269254608758665,211.74075464260147 -16.269254608758665,233.08075464260148 4.142512074586712,221.69244465147935" fill="#93c5fd" stroke="none"/><polygon points="-19.338539453500175,190.45273781005685 4.142512074586712,200.35244465147935 -16.269254608758665,211.74075464260147 -39.75030613684555,201.841047801179" fill="#38bdf8" stroke="none"/></g><g><polygon points="-83.64312434827781,224.66965095087858 -60.16207282019092,234.5693577923011 -60.16207282019092,255.9093577923011 -83.64312434827781,246.00965095087858" fill="#1d4ed8" stroke="none"/><polygon points="-39.750306136845545,223.18104780117895 -60.16207282019092,234.5693577923011 -60.16207282019092,255.9093577923011 -39.750306136845545,244.52104780117895" fill="#93c5fd" stroke="none"/><polygon points="-63.23135766493243,213.28134095975645 -39.750306136845545,223.18104780117895 -60.16207282019092,234.5693577923011 -83.64312434827781,224.66965095087858" fill="#38bdf8" stroke="none"/></g><g><polygon points="-83.64312434827781,203.3296509508786 -60.16207282019092,213.22935779230107 -60.16207282019092,234.56935779230108 -83.64312434827781,224.6696509508786" fill="#1d4ed8" stroke="none"/><polygon points="-39.750306136845545,201.84104780117895 -60.16207282019092,213.22935779230107 -60.16207282019092,234.56935779230108 -39.750306136845545,223.18104780117895" fill="#93c5fd" stroke="none"/><polygon points="-63.23135766493243,191.94134095975645 -39.750306136845545,201.84104780117895 -60.16207282019092,213.22935779230107 -83.64312434827781,203.3296509508786" fill="#38bdf8" stroke="none"/></g><g><polygon points="-16.269254608758672,233.08075464260145 7.211796919328215,242.98046148402398 7.211796919328215,264.32046148402395 -16.269254608758672,254.42075464260145" fill="#1d4ed8" stroke="none"/><polygon points="27.623563602673592,231.59215149290182 7.211796919328215,242.98046148402398 7.211796919328215,264.32046148402395 27.623563602673592,252.93215149290182" fill="#93c5fd" stroke="none"/><polygon points="4.142512074586705,221.69244465147932 27.623563602673592,231.59215149290182 7.211796919328215,242.98046148402398 -16.269254608758672,233.08075464260145" fill="#38bdf8" stroke="none"/></g><g><polygon points="-16.269254608758672,211.74075464260147 7.211796919328215,221.64046148402394 7.211796919328215,242.98046148402395 -16.269254608758672,233.08075464260148" fill="#1d4ed8" stroke="none"/><polygon points="27.623563602673592,210.25215149290182 7.211796919328215,221.64046148402394 7.211796919328215,242.98046148402395 27.623563602673592,231.59215149290182" fill="#93c5fd" stroke="none"/><polygon points="4.142512074586705,200.35244465147932 27.623563602673592,210.25215149290182 7.211796919328215,221.64046148402394 -16.269254608758672,211.74075464260147" fill="#38bdf8" stroke="none"/></g><g><polygon points="-60.16207282019093,234.5693577923011 -36.68102129210404,244.46906463372363 -36.68102129210404,265.8090646337236 -60.16207282019093,255.9093577923011" fill="#1d4ed8" stroke="none"/><polygon points="-16.269254608758665,233.08075464260148 -36.68102129210404,244.46906463372363 -36.68102129210404,265.8090646337236 -16.269254608758665,254.42075464260148" fill="#93c5fd" stroke="none"/><polygon points="-39.75030613684555,223.18104780117898 -16.269254608758665,233.08075464260148 -36.68102129210404,244.46906463372363 -60.16207282019093,234.5693577923011" fill="#38bdf8" stroke="none"/></g><g><polygon points="-60.16207282019093,213.22935779230113 -36.68102129210404,223.1290646337236 -36.68102129210404,244.4690646337236 -60.16207282019093,234.56935779230113" fill="#1d4ed8" stroke="none"/><polygon points="-16.269254608758665,211.74075464260147 -36.68102129210404,223.1290646337236 -36.68102129210404,244.4690646337236 -16.269254608758665,233.08075464260148" fill="#93c5fd" stroke="none"/><polygon points="-39.75030613684555,201.84104780117897 -16.269254608758665,211.74075464260147 -36.68102129210404,223.1290646337236 -60.16207282019093,213.22935779230113" fill="#38bdf8" stroke="none"/></g><g><polygon points="-36.68102129210405,244.46906463372363 -13.199969764017162,254.3687714751461 -13.199969764017162,275.7087714751461 -36.68102129210405,265.8090646337236" fill="#1d4ed8" stroke="none"/><polygon points="7.211796919328215,242.98046148402398 -13.199969764017162,254.3687714751461 -13.199969764017162,275.7087714751461 7.211796919328215,264.32046148402395" fill="#93c5fd" stroke="none"/><polygon points="-16.269254608758672,233.08075464260148 7.211796919328215,242.98046148402398 -13.199969764017162,254.3687714751461 -36.68102129210405,244.46906463372363" fill="#38bdf8" stroke="none"/></g><g><polygon points="-36.68102129210405,223.1290646337236 -13.199969764017162,233.02877147514613 -13.199969764017162,254.36877147514613 -36.68102129210405,244.4690646337236" fill="#1d4ed8" stroke="none"/><polygon points="7.211796919328215,221.64046148402397 -13.199969764017162,233.02877147514613 -13.199969764017162,254.36877147514613 7.211796919328215,242.98046148402398" fill="#93c5fd" stroke="none"/><polygon points="-16.269254608758672,211.74075464260147 7.211796919328215,221.64046148402397 -13.199969764017162,233.02877147514613 -36.68102129210405,223.1290646337236" fill="#38bdf8" stroke="none"/></g></g>
  

</svg>